<?xml version="1.0" encoding="utf-8" standalone="no"?>
<!DOCTYPE svg PUBLIC "-//W3C//DTD SVG 1.1//EN"
  "http://www.w3.org/Graphics/SVG/1.1/DTD/svg11.dtd">
<svg xmlns:xlink="http://www.w3.org/1999/xlink" width="518.4pt" height="331.2pt" viewBox="0 0 518.4 331.2" xmlns="http://www.w3.org/2000/svg" version="1.1">
 <defs>
  <style type="text/css">*{stroke-linejoin: round; stroke-linecap: butt}</style>
 </defs>
 <g id="figure_1">
  <g id="patch_1">
   <path d="M 0 331.2 
L 518.4 331.2 
L 518.4 0 
L 0 0 
z
" style="fill: #ffffff"/>
  </g>
  <g id="axes_1">
   <g id="patch_2">
    <path d="M 45.082344 291.077656 
L 507.6 291.077656 
L 507.6 26.16 
L 45.082344 26.16 
z
" style="fill: #ffffff"/>
   </g>
   <g id="matplotlib.axis_1">
    <g id="xtick_1">
     <g id="line2d_1">
      <path d="M 66.105874 291.077656 
L 66.105874 26.16 
" clip-path="url(#p2c7b28d467)" style="fill: none; stroke: #b0b0b0; stroke-opacity: 0.3; stroke-width: 0.8; stroke-linecap: square"/>
     </g>
     <g id="line2d_2">
      <defs>
       <path id="md298db9dfe" d="M 0 0 
L 0 3.5 
" style="stroke: #000000; stroke-width: 0.8"/>
      </defs>
      <g>
       <use xlink:href="#md298db9dfe" x="66.105874" y="291.077656" style="stroke: #000000; stroke-width: 0.8"/>
      </g>
     </g>
     <g id="text_1">
      <!-- 2,048 -->
      <g transform="translate(54.654624 304.155781) scale(0.08 -0.08)">
       <defs>
        <path id="DejaVuSans-15" d="M 1228 531 
L 3431 531 
L 3431 0 
L 469 0 
L 469 531 
Q 828 903 1448 1529 
Q 2069 2156 2228 2338 
Q 2531 2678 2651 2914 
Q 2772 3150 2772 3378 
Q 2772 3750 2511 3984 
Q 2250 4219 1831 4219 
Q 1534 4219 1204 4116 
Q 875 4013 500 3803 
L 500 4441 
Q 881 4594 1212 4672 
Q 1544 4750 1819 4750 
Q 2544 4750 2975 4387 
Q 3406 4025 3406 3419 
Q 3406 3131 3298 2873 
Q 3191 2616 2906 2266 
Q 2828 2175 2409 1742 
Q 1991 1309 1228 531 
z
" transform="scale(0.015625)"/>
        <path id="DejaVuSans-f" d="M 750 794 
L 1409 794 
L 1409 256 
L 897 -744 
L 494 -744 
L 750 256 
L 750 794 
z
" transform="scale(0.015625)"/>
        <path id="DejaVuSans-13" d="M 2034 4250 
Q 1547 4250 1301 3770 
Q 1056 3291 1056 2328 
Q 1056 1369 1301 889 
Q 1547 409 2034 409 
Q 2525 409 2770 889 
Q 3016 1369 3016 2328 
Q 3016 3291 2770 3770 
Q 2525 4250 2034 4250 
z
M 2034 4750 
Q 2819 4750 3233 4129 
Q 3647 3509 3647 2328 
Q 3647 1150 3233 529 
Q 2819 -91 2034 -91 
Q 1250 -91 836 529 
Q 422 1150 422 2328 
Q 422 3509 836 4129 
Q 1250 4750 2034 4750 
z
" transform="scale(0.015625)"/>
        <path id="DejaVuSans-17" d="M 2419 4116 
L 825 1625 
L 2419 1625 
L 2419 4116 
z
M 2253 4666 
L 3047 4666 
L 3047 1625 
L 3713 1625 
L 3713 1100 
L 3047 1100 
L 3047 0 
L 2419 0 
L 2419 1100 
L 313 1100 
L 313 1709 
L 2253 4666 
z
" transform="scale(0.015625)"/>
        <path id="DejaVuSans-1b" d="M 2034 2216 
Q 1584 2216 1326 1975 
Q 1069 1734 1069 1313 
Q 1069 891 1326 650 
Q 1584 409 2034 409 
Q 2484 409 2743 651 
Q 3003 894 3003 1313 
Q 3003 1734 2745 1975 
Q 2488 2216 2034 2216 
z
M 1403 2484 
Q 997 2584 770 2862 
Q 544 3141 544 3541 
Q 544 4100 942 4425 
Q 1341 4750 2034 4750 
Q 2731 4750 3128 4425 
Q 3525 4100 3525 3541 
Q 3525 3141 3298 2862 
Q 3072 2584 2669 2484 
Q 3125 2378 3379 2068 
Q 3634 1759 3634 1313 
Q 3634 634 3220 271 
Q 2806 -91 2034 -91 
Q 1263 -91 848 271 
Q 434 634 434 1313 
Q 434 1759 690 2068 
Q 947 2378 1403 2484 
z
M 1172 3481 
Q 1172 3119 1398 2916 
Q 1625 2713 2034 2713 
Q 2441 2713 2670 2916 
Q 2900 3119 2900 3481 
Q 2900 3844 2670 4047 
Q 2441 4250 2034 4250 
Q 1625 4250 1398 4047 
Q 1172 3844 1172 3481 
z
" transform="scale(0.015625)"/>
       </defs>
       <use xlink:href="#DejaVuSans-15"/>
       <use xlink:href="#DejaVuSans-f" transform="translate(63.625 0)"/>
       <use xlink:href="#DejaVuSans-13" transform="translate(95.40625 0)"/>
       <use xlink:href="#DejaVuSans-17" transform="translate(159.03125 0)"/>
       <use xlink:href="#DejaVuSans-1b" transform="translate(222.65625 0)"/>
      </g>
     </g>
    </g>
    <g id="xtick_2">
     <g id="line2d_3">
      <path d="M 150.199993 291.077656 
L 150.199993 26.16 
" clip-path="url(#p2c7b28d467)" style="fill: none; stroke: #b0b0b0; stroke-opacity: 0.3; stroke-width: 0.8; stroke-linecap: square"/>
     </g>
     <g id="line2d_4">
      <g>
       <use xlink:href="#md298db9dfe" x="150.199993" y="291.077656" style="stroke: #000000; stroke-width: 0.8"/>
      </g>
     </g>
     <g id="text_2">
      <!-- 4,096 -->
      <g transform="translate(138.748743 304.155781) scale(0.08 -0.08)">
       <defs>
        <path id="DejaVuSans-1c" d="M 703 97 
L 703 672 
Q 941 559 1184 500 
Q 1428 441 1663 441 
Q 2288 441 2617 861 
Q 2947 1281 2994 2138 
Q 2813 1869 2534 1725 
Q 2256 1581 1919 1581 
Q 1219 1581 811 2004 
Q 403 2428 403 3163 
Q 403 3881 828 4315 
Q 1253 4750 1959 4750 
Q 2769 4750 3195 4129 
Q 3622 3509 3622 2328 
Q 3622 1225 3098 567 
Q 2575 -91 1691 -91 
Q 1453 -91 1209 -44 
Q 966 3 703 97 
z
M 1959 2075 
Q 2384 2075 2632 2365 
Q 2881 2656 2881 3163 
Q 2881 3666 2632 3958 
Q 2384 4250 1959 4250 
Q 1534 4250 1286 3958 
Q 1038 3666 1038 3163 
Q 1038 2656 1286 2365 
Q 1534 2075 1959 2075 
z
" transform="scale(0.015625)"/>
        <path id="DejaVuSans-19" d="M 2113 2584 
Q 1688 2584 1439 2293 
Q 1191 2003 1191 1497 
Q 1191 994 1439 701 
Q 1688 409 2113 409 
Q 2538 409 2786 701 
Q 3034 994 3034 1497 
Q 3034 2003 2786 2293 
Q 2538 2584 2113 2584 
z
M 3366 4563 
L 3366 3988 
Q 3128 4100 2886 4159 
Q 2644 4219 2406 4219 
Q 1781 4219 1451 3797 
Q 1122 3375 1075 2522 
Q 1259 2794 1537 2939 
Q 1816 3084 2150 3084 
Q 2853 3084 3261 2657 
Q 3669 2231 3669 1497 
Q 3669 778 3244 343 
Q 2819 -91 2113 -91 
Q 1303 -91 875 529 
Q 447 1150 447 2328 
Q 447 3434 972 4092 
Q 1497 4750 2381 4750 
Q 2619 4750 2861 4703 
Q 3103 4656 3366 4563 
z
" transform="scale(0.015625)"/>
       </defs>
       <use xlink:href="#DejaVuSans-17"/>
       <use xlink:href="#DejaVuSans-f" transform="translate(63.625 0)"/>
       <use xlink:href="#DejaVuSans-13" transform="translate(95.40625 0)"/>
       <use xlink:href="#DejaVuSans-1c" transform="translate(159.03125 0)"/>
       <use xlink:href="#DejaVuSans-19" transform="translate(222.65625 0)"/>
      </g>
     </g>
    </g>
    <g id="xtick_3">
     <g id="line2d_5">
      <path d="M 234.294112 291.077656 
L 234.294112 26.16 
" clip-path="url(#p2c7b28d467)" style="fill: none; stroke: #b0b0b0; stroke-opacity: 0.3; stroke-width: 0.8; stroke-linecap: square"/>
     </g>
     <g id="line2d_6">
      <g>
       <use xlink:href="#md298db9dfe" x="234.294112" y="291.077656" style="stroke: #000000; stroke-width: 0.8"/>
      </g>
     </g>
     <g id="text_3">
      <!-- 8,192 -->
      <g transform="translate(222.842862 304.155781) scale(0.08 -0.08)">
       <defs>
        <path id="DejaVuSans-14" d="M 794 531 
L 1825 531 
L 1825 4091 
L 703 3866 
L 703 4441 
L 1819 4666 
L 2450 4666 
L 2450 531 
L 3481 531 
L 3481 0 
L 794 0 
L 794 531 
z
" transform="scale(0.015625)"/>
       </defs>
       <use xlink:href="#DejaVuSans-1b"/>
       <use xlink:href="#DejaVuSans-f" transform="translate(63.625 0)"/>
       <use xlink:href="#DejaVuSans-14" transform="translate(95.40625 0)"/>
       <use xlink:href="#DejaVuSans-1c" transform="translate(159.03125 0)"/>
       <use xlink:href="#DejaVuSans-15" transform="translate(222.65625 0)"/>
      </g>
     </g>
    </g>
    <g id="xtick_4">
     <g id="line2d_7">
      <path d="M 318.388232 291.077656 
L 318.388232 26.16 
" clip-path="url(#p2c7b28d467)" style="fill: none; stroke: #b0b0b0; stroke-opacity: 0.3; stroke-width: 0.8; stroke-linecap: square"/>
     </g>
     <g id="line2d_8">
      <g>
       <use xlink:href="#md298db9dfe" x="318.388232" y="291.077656" style="stroke: #000000; stroke-width: 0.8"/>
      </g>
     </g>
     <g id="text_4">
      <!-- 16,384 -->
      <g transform="translate(304.391982 304.155781) scale(0.08 -0.08)">
       <defs>
        <path id="DejaVuSans-16" d="M 2597 2516 
Q 3050 2419 3304 2112 
Q 3559 1806 3559 1356 
Q 3559 666 3084 287 
Q 2609 -91 1734 -91 
Q 1441 -91 1130 -33 
Q 819 25 488 141 
L 488 750 
Q 750 597 1062 519 
Q 1375 441 1716 441 
Q 2309 441 2620 675 
Q 2931 909 2931 1356 
Q 2931 1769 2642 2001 
Q 2353 2234 1838 2234 
L 1294 2234 
L 1294 2753 
L 1863 2753 
Q 2328 2753 2575 2939 
Q 2822 3125 2822 3475 
Q 2822 3834 2567 4026 
Q 2313 4219 1838 4219 
Q 1578 4219 1281 4162 
Q 984 4106 628 3988 
L 628 4550 
Q 988 4650 1302 4700 
Q 1616 4750 1894 4750 
Q 2613 4750 3031 4423 
Q 3450 4097 3450 3541 
Q 3450 3153 3228 2886 
Q 3006 2619 2597 2516 
z
" transform="scale(0.015625)"/>
       </defs>
       <use xlink:href="#DejaVuSans-14"/>
       <use xlink:href="#DejaVuSans-19" transform="translate(63.625 0)"/>
       <use xlink:href="#DejaVuSans-f" transform="translate(127.25 0)"/>
       <use xlink:href="#DejaVuSans-16" transform="translate(159.03125 0)"/>
       <use xlink:href="#DejaVuSans-1b" transform="translate(222.65625 0)"/>
       <use xlink:href="#DejaVuSans-17" transform="translate(286.28125 0)"/>
      </g>
     </g>
    </g>
    <g id="xtick_5">
     <g id="line2d_9">
      <path d="M 402.482351 291.077656 
L 402.482351 26.16 
" clip-path="url(#p2c7b28d467)" style="fill: none; stroke: #b0b0b0; stroke-opacity: 0.3; stroke-width: 0.8; stroke-linecap: square"/>
     </g>
     <g id="line2d_10">
      <g>
       <use xlink:href="#md298db9dfe" x="402.482351" y="291.077656" style="stroke: #000000; stroke-width: 0.8"/>
      </g>
     </g>
     <g id="text_5">
      <!-- 32,768 -->
      <g transform="translate(388.486101 304.155781) scale(0.08 -0.08)">
       <defs>
        <path id="DejaVuSans-1a" d="M 525 4666 
L 3525 4666 
L 3525 4397 
L 1831 0 
L 1172 0 
L 2766 4134 
L 525 4134 
L 525 4666 
z
" transform="scale(0.015625)"/>
       </defs>
       <use xlink:href="#DejaVuSans-16"/>
       <use xlink:href="#DejaVuSans-15" transform="translate(63.625 0)"/>
       <use xlink:href="#DejaVuSans-f" transform="translate(127.25 0)"/>
       <use xlink:href="#DejaVuSans-1a" transform="translate(159.03125 0)"/>
       <use xlink:href="#DejaVuSans-19" transform="translate(222.65625 0)"/>
       <use xlink:href="#DejaVuSans-1b" transform="translate(286.28125 0)"/>
      </g>
     </g>
    </g>
    <g id="xtick_6">
     <g id="line2d_11">
      <path d="M 486.57647 291.077656 
L 486.57647 26.16 
" clip-path="url(#p2c7b28d467)" style="fill: none; stroke: #b0b0b0; stroke-opacity: 0.3; stroke-width: 0.8; stroke-linecap: square"/>
     </g>
     <g id="line2d_12">
      <g>
       <use xlink:href="#md298db9dfe" x="486.57647" y="291.077656" style="stroke: #000000; stroke-width: 0.8"/>
      </g>
     </g>
     <g id="text_6">
      <!-- 65,536 -->
      <g transform="translate(472.58022 304.155781) scale(0.08 -0.08)">
       <defs>
        <path id="DejaVuSans-18" d="M 691 4666 
L 3169 4666 
L 3169 4134 
L 1269 4134 
L 1269 2991 
Q 1406 3038 1543 3061 
Q 1681 3084 1819 3084 
Q 2600 3084 3056 2656 
Q 3513 2228 3513 1497 
Q 3513 744 3044 326 
Q 2575 -91 1722 -91 
Q 1428 -91 1123 -41 
Q 819 9 494 109 
L 494 744 
Q 775 591 1075 516 
Q 1375 441 1709 441 
Q 2250 441 2565 725 
Q 2881 1009 2881 1497 
Q 2881 1984 2565 2268 
Q 2250 2553 1709 2553 
Q 1456 2553 1204 2497 
Q 953 2441 691 2322 
L 691 4666 
z
" transform="scale(0.015625)"/>
       </defs>
       <use xlink:href="#DejaVuSans-19"/>
       <use xlink:href="#DejaVuSans-18" transform="translate(63.625 0)"/>
       <use xlink:href="#DejaVuSans-f" transform="translate(127.25 0)"/>
       <use xlink:href="#DejaVuSans-18" transform="translate(159.03125 0)"/>
       <use xlink:href="#DejaVuSans-16" transform="translate(222.65625 0)"/>
       <use xlink:href="#DejaVuSans-19" transform="translate(286.28125 0)"/>
      </g>
     </g>
    </g>
    <g id="text_7">
     <!-- haystack depth (tokens, nominal) -->
     <g transform="translate(192.367734 317.676094) scale(0.1 -0.1)">
      <defs>
       <path id="DejaVuSans-4b" d="M 3513 2113 
L 3513 0 
L 2938 0 
L 2938 2094 
Q 2938 2591 2744 2837 
Q 2550 3084 2163 3084 
Q 1697 3084 1428 2787 
Q 1159 2491 1159 1978 
L 1159 0 
L 581 0 
L 581 4863 
L 1159 4863 
L 1159 2956 
Q 1366 3272 1645 3428 
Q 1925 3584 2291 3584 
Q 2894 3584 3203 3211 
Q 3513 2838 3513 2113 
z
" transform="scale(0.015625)"/>
       <path id="DejaVuSans-44" d="M 2194 1759 
Q 1497 1759 1228 1600 
Q 959 1441 959 1056 
Q 959 750 1161 570 
Q 1363 391 1709 391 
Q 2188 391 2477 730 
Q 2766 1069 2766 1631 
L 2766 1759 
L 2194 1759 
z
M 3341 1997 
L 3341 0 
L 2766 0 
L 2766 531 
Q 2569 213 2275 61 
Q 1981 -91 1556 -91 
Q 1019 -91 701 211 
Q 384 513 384 1019 
Q 384 1609 779 1909 
Q 1175 2209 1959 2209 
L 2766 2209 
L 2766 2266 
Q 2766 2663 2505 2880 
Q 2244 3097 1772 3097 
Q 1472 3097 1187 3025 
Q 903 2953 641 2809 
L 641 3341 
Q 956 3463 1253 3523 
Q 1550 3584 1831 3584 
Q 2591 3584 2966 3190 
Q 3341 2797 3341 1997 
z
" transform="scale(0.015625)"/>
       <path id="DejaVuSans-5c" d="M 2059 -325 
Q 1816 -950 1584 -1140 
Q 1353 -1331 966 -1331 
L 506 -1331 
L 506 -850 
L 844 -850 
Q 1081 -850 1212 -737 
Q 1344 -625 1503 -206 
L 1606 56 
L 191 3500 
L 800 3500 
L 1894 763 
L 2988 3500 
L 3597 3500 
L 2059 -325 
z
" transform="scale(0.015625)"/>
       <path id="DejaVuSans-56" d="M 2834 3397 
L 2834 2853 
Q 2591 2978 2328 3040 
Q 2066 3103 1784 3103 
Q 1356 3103 1142 2972 
Q 928 2841 928 2578 
Q 928 2378 1081 2264 
Q 1234 2150 1697 2047 
L 1894 2003 
Q 2506 1872 2764 1633 
Q 3022 1394 3022 966 
Q 3022 478 2636 193 
Q 2250 -91 1575 -91 
Q 1294 -91 989 -36 
Q 684 19 347 128 
L 347 722 
Q 666 556 975 473 
Q 1284 391 1588 391 
Q 1994 391 2212 530 
Q 2431 669 2431 922 
Q 2431 1156 2273 1281 
Q 2116 1406 1581 1522 
L 1381 1569 
Q 847 1681 609 1914 
Q 372 2147 372 2553 
Q 372 3047 722 3315 
Q 1072 3584 1716 3584 
Q 2034 3584 2315 3537 
Q 2597 3491 2834 3397 
z
" transform="scale(0.015625)"/>
       <path id="DejaVuSans-57" d="M 1172 4494 
L 1172 3500 
L 2356 3500 
L 2356 3053 
L 1172 3053 
L 1172 1153 
Q 1172 725 1289 603 
Q 1406 481 1766 481 
L 2356 481 
L 2356 0 
L 1766 0 
Q 1100 0 847 248 
Q 594 497 594 1153 
L 594 3053 
L 172 3053 
L 172 3500 
L 594 3500 
L 594 4494 
L 1172 4494 
z
" transform="scale(0.015625)"/>
       <path id="DejaVuSans-46" d="M 3122 3366 
L 3122 2828 
Q 2878 2963 2633 3030 
Q 2388 3097 2138 3097 
Q 1578 3097 1268 2742 
Q 959 2388 959 1747 
Q 959 1106 1268 751 
Q 1578 397 2138 397 
Q 2388 397 2633 464 
Q 2878 531 3122 666 
L 3122 134 
Q 2881 22 2623 -34 
Q 2366 -91 2075 -91 
Q 1284 -91 818 406 
Q 353 903 353 1747 
Q 353 2603 823 3093 
Q 1294 3584 2113 3584 
Q 2378 3584 2631 3529 
Q 2884 3475 3122 3366 
z
" transform="scale(0.015625)"/>
       <path id="DejaVuSans-4e" d="M 581 4863 
L 1159 4863 
L 1159 1991 
L 2875 3500 
L 3609 3500 
L 1753 1863 
L 3688 0 
L 2938 0 
L 1159 1709 
L 1159 0 
L 581 0 
L 581 4863 
z
" transform="scale(0.015625)"/>
       <path id="DejaVuSans-3" transform="scale(0.015625)"/>
       <path id="DejaVuSans-47" d="M 2906 2969 
L 2906 4863 
L 3481 4863 
L 3481 0 
L 2906 0 
L 2906 525 
Q 2725 213 2448 61 
Q 2172 -91 1784 -91 
Q 1150 -91 751 415 
Q 353 922 353 1747 
Q 353 2572 751 3078 
Q 1150 3584 1784 3584 
Q 2172 3584 2448 3432 
Q 2725 3281 2906 2969 
z
M 947 1747 
Q 947 1113 1208 752 
Q 1469 391 1925 391 
Q 2381 391 2643 752 
Q 2906 1113 2906 1747 
Q 2906 2381 2643 2742 
Q 2381 3103 1925 3103 
Q 1469 3103 1208 2742 
Q 947 2381 947 1747 
z
" transform="scale(0.015625)"/>
       <path id="DejaVuSans-48" d="M 3597 1894 
L 3597 1613 
L 953 1613 
Q 991 1019 1311 708 
Q 1631 397 2203 397 
Q 2534 397 2845 478 
Q 3156 559 3463 722 
L 3463 178 
Q 3153 47 2828 -22 
Q 2503 -91 2169 -91 
Q 1331 -91 842 396 
Q 353 884 353 1716 
Q 353 2575 817 3079 
Q 1281 3584 2069 3584 
Q 2775 3584 3186 3129 
Q 3597 2675 3597 1894 
z
M 3022 2063 
Q 3016 2534 2758 2815 
Q 2500 3097 2075 3097 
Q 1594 3097 1305 2825 
Q 1016 2553 972 2059 
L 3022 2063 
z
" transform="scale(0.015625)"/>
       <path id="DejaVuSans-53" d="M 1159 525 
L 1159 -1331 
L 581 -1331 
L 581 3500 
L 1159 3500 
L 1159 2969 
Q 1341 3281 1617 3432 
Q 1894 3584 2278 3584 
Q 2916 3584 3314 3078 
Q 3713 2572 3713 1747 
Q 3713 922 3314 415 
Q 2916 -91 2278 -91 
Q 1894 -91 1617 61 
Q 1341 213 1159 525 
z
M 3116 1747 
Q 3116 2381 2855 2742 
Q 2594 3103 2138 3103 
Q 1681 3103 1420 2742 
Q 1159 2381 1159 1747 
Q 1159 1113 1420 752 
Q 1681 391 2138 391 
Q 2594 391 2855 752 
Q 3116 1113 3116 1747 
z
" transform="scale(0.015625)"/>
       <path id="DejaVuSans-b" d="M 1984 4856 
Q 1566 4138 1362 3434 
Q 1159 2731 1159 2009 
Q 1159 1288 1364 580 
Q 1569 -128 1984 -844 
L 1484 -844 
Q 1016 -109 783 600 
Q 550 1309 550 2009 
Q 550 2706 781 3412 
Q 1013 4119 1484 4856 
L 1984 4856 
z
" transform="scale(0.015625)"/>
       <path id="DejaVuSans-52" d="M 1959 3097 
Q 1497 3097 1228 2736 
Q 959 2375 959 1747 
Q 959 1119 1226 758 
Q 1494 397 1959 397 
Q 2419 397 2687 759 
Q 2956 1122 2956 1747 
Q 2956 2369 2687 2733 
Q 2419 3097 1959 3097 
z
M 1959 3584 
Q 2709 3584 3137 3096 
Q 3566 2609 3566 1747 
Q 3566 888 3137 398 
Q 2709 -91 1959 -91 
Q 1206 -91 779 398 
Q 353 888 353 1747 
Q 353 2609 779 3096 
Q 1206 3584 1959 3584 
z
" transform="scale(0.015625)"/>
       <path id="DejaVuSans-51" d="M 3513 2113 
L 3513 0 
L 2938 0 
L 2938 2094 
Q 2938 2591 2744 2837 
Q 2550 3084 2163 3084 
Q 1697 3084 1428 2787 
Q 1159 2491 1159 1978 
L 1159 0 
L 581 0 
L 581 3500 
L 1159 3500 
L 1159 2956 
Q 1366 3272 1645 3428 
Q 1925 3584 2291 3584 
Q 2894 3584 3203 3211 
Q 3513 2838 3513 2113 
z
" transform="scale(0.015625)"/>
       <path id="DejaVuSans-50" d="M 3328 2828 
Q 3544 3216 3844 3400 
Q 4144 3584 4550 3584 
Q 5097 3584 5394 3201 
Q 5691 2819 5691 2113 
L 5691 0 
L 5113 0 
L 5113 2094 
Q 5113 2597 4934 2840 
Q 4756 3084 4391 3084 
Q 3944 3084 3684 2787 
Q 3425 2491 3425 1978 
L 3425 0 
L 2847 0 
L 2847 2094 
Q 2847 2600 2669 2842 
Q 2491 3084 2119 3084 
Q 1678 3084 1418 2786 
Q 1159 2488 1159 1978 
L 1159 0 
L 581 0 
L 581 3500 
L 1159 3500 
L 1159 2956 
Q 1356 3278 1631 3431 
Q 1906 3584 2284 3584 
Q 2666 3584 2933 3390 
Q 3200 3197 3328 2828 
z
" transform="scale(0.015625)"/>
       <path id="DejaVuSans-4c" d="M 603 3500 
L 1178 3500 
L 1178 0 
L 603 0 
L 603 3500 
z
M 603 4863 
L 1178 4863 
L 1178 4134 
L 603 4134 
L 603 4863 
z
" transform="scale(0.015625)"/>
       <path id="DejaVuSans-4f" d="M 603 4863 
L 1178 4863 
L 1178 0 
L 603 0 
L 603 4863 
z
" transform="scale(0.015625)"/>
       <path id="DejaVuSans-c" d="M 513 4856 
L 1013 4856 
Q 1481 4119 1714 3412 
Q 1947 2706 1947 2009 
Q 1947 1309 1714 600 
Q 1481 -109 1013 -844 
L 513 -844 
Q 928 -128 1133 580 
Q 1338 1288 1338 2009 
Q 1338 2731 1133 3434 
Q 928 4138 513 4856 
z
" transform="scale(0.015625)"/>
      </defs>
      <use xlink:href="#DejaVuSans-4b"/>
      <use xlink:href="#DejaVuSans-44" transform="translate(63.375 0)"/>
      <use xlink:href="#DejaVuSans-5c" transform="translate(124.65625 0)"/>
      <use xlink:href="#DejaVuSans-56" transform="translate(183.84375 0)"/>
      <use xlink:href="#DejaVuSans-57" transform="translate(235.9375 0)"/>
      <use xlink:href="#DejaVuSans-44" transform="translate(275.140625 0)"/>
      <use xlink:href="#DejaVuSans-46" transform="translate(336.421875 0)"/>
      <use xlink:href="#DejaVuSans-4e" transform="translate(391.40625 0)"/>
      <use xlink:href="#DejaVuSans-3" transform="translate(449.3125 0)"/>
      <use xlink:href="#DejaVuSans-47" transform="translate(481.09375 0)"/>
      <use xlink:href="#DejaVuSans-48" transform="translate(544.578125 0)"/>
      <use xlink:href="#DejaVuSans-53" transform="translate(606.109375 0)"/>
      <use xlink:href="#DejaVuSans-57" transform="translate(669.59375 0)"/>
      <use xlink:href="#DejaVuSans-4b" transform="translate(708.796875 0)"/>
      <use xlink:href="#DejaVuSans-3" transform="translate(772.171875 0)"/>
      <use xlink:href="#DejaVuSans-b" transform="translate(803.953125 0)"/>
      <use xlink:href="#DejaVuSans-57" transform="translate(842.96875 0)"/>
      <use xlink:href="#DejaVuSans-52" transform="translate(882.171875 0)"/>
      <use xlink:href="#DejaVuSans-4e" transform="translate(943.359375 0)"/>
      <use xlink:href="#DejaVuSans-48" transform="translate(997.703125 0)"/>
      <use xlink:href="#DejaVuSans-51" transform="translate(1059.234375 0)"/>
      <use xlink:href="#DejaVuSans-56" transform="translate(1122.609375 0)"/>
      <use xlink:href="#DejaVuSans-f" transform="translate(1174.703125 0)"/>
      <use xlink:href="#DejaVuSans-3" transform="translate(1206.484375 0)"/>
      <use xlink:href="#DejaVuSans-51" transform="translate(1238.265625 0)"/>
      <use xlink:href="#DejaVuSans-52" transform="translate(1301.640625 0)"/>
      <use xlink:href="#DejaVuSans-50" transform="translate(1362.828125 0)"/>
      <use xlink:href="#DejaVuSans-4c" transform="translate(1460.234375 0)"/>
      <use xlink:href="#DejaVuSans-51" transform="translate(1488.015625 0)"/>
      <use xlink:href="#DejaVuSans-44" transform="translate(1551.390625 0)"/>
      <use xlink:href="#DejaVuSans-4f" transform="translate(1612.671875 0)"/>
      <use xlink:href="#DejaVuSans-c" transform="translate(1640.453125 0)"/>
     </g>
    </g>
   </g>
   <g id="matplotlib.axis_2">
    <g id="ytick_1">
     <g id="line2d_13">
      <path d="M 45.082344 279.035945 
L 507.6 279.035945 
" clip-path="url(#p2c7b28d467)" style="fill: none; stroke: #b0b0b0; stroke-opacity: 0.3; stroke-width: 0.8; stroke-linecap: square"/>
     </g>
     <g id="line2d_14">
      <defs>
       <path id="md6b4e26da2" d="M 0 0 
L -3.5 0 
" style="stroke: #000000; stroke-width: 0.8"/>
      </defs>
      <g>
       <use xlink:href="#md6b4e26da2" x="45.082344" y="279.035945" style="stroke: #000000; stroke-width: 0.8"/>
      </g>
     </g>
     <g id="text_8">
      <!-- 0 -->
      <g transform="translate(31.719844 282.834773) scale(0.1 -0.1)">
       <use xlink:href="#DejaVuSans-13"/>
      </g>
     </g>
    </g>
    <g id="ytick_2">
     <g id="line2d_15">
      <path d="M 45.082344 224.300892 
L 507.6 224.300892 
" clip-path="url(#p2c7b28d467)" style="fill: none; stroke: #b0b0b0; stroke-opacity: 0.3; stroke-width: 0.8; stroke-linecap: square"/>
     </g>
     <g id="line2d_16">
      <g>
       <use xlink:href="#md6b4e26da2" x="45.082344" y="224.300892" style="stroke: #000000; stroke-width: 0.8"/>
      </g>
     </g>
     <g id="text_9">
      <!-- 20 -->
      <g transform="translate(25.357344 228.09972) scale(0.1 -0.1)">
       <use xlink:href="#DejaVuSans-15"/>
       <use xlink:href="#DejaVuSans-13" transform="translate(63.625 0)"/>
      </g>
     </g>
    </g>
    <g id="ytick_3">
     <g id="line2d_17">
      <path d="M 45.082344 169.565839 
L 507.6 169.565839 
" clip-path="url(#p2c7b28d467)" style="fill: none; stroke: #b0b0b0; stroke-opacity: 0.3; stroke-width: 0.8; stroke-linecap: square"/>
     </g>
     <g id="line2d_18">
      <g>
       <use xlink:href="#md6b4e26da2" x="45.082344" y="169.565839" style="stroke: #000000; stroke-width: 0.8"/>
      </g>
     </g>
     <g id="text_10">
      <!-- 40 -->
      <g transform="translate(25.357344 173.364667) scale(0.1 -0.1)">
       <use xlink:href="#DejaVuSans-17"/>
       <use xlink:href="#DejaVuSans-13" transform="translate(63.625 0)"/>
      </g>
     </g>
    </g>
    <g id="ytick_4">
     <g id="line2d_19">
      <path d="M 45.082344 114.830786 
L 507.6 114.830786 
" clip-path="url(#p2c7b28d467)" style="fill: none; stroke: #b0b0b0; stroke-opacity: 0.3; stroke-width: 0.8; stroke-linecap: square"/>
     </g>
     <g id="line2d_20">
      <g>
       <use xlink:href="#md6b4e26da2" x="45.082344" y="114.830786" style="stroke: #000000; stroke-width: 0.8"/>
      </g>
     </g>
     <g id="text_11">
      <!-- 60 -->
      <g transform="translate(25.357344 118.629614) scale(0.1 -0.1)">
       <use xlink:href="#DejaVuSans-19"/>
       <use xlink:href="#DejaVuSans-13" transform="translate(63.625 0)"/>
      </g>
     </g>
    </g>
    <g id="ytick_5">
     <g id="line2d_21">
      <path d="M 45.082344 60.095733 
L 507.6 60.095733 
" clip-path="url(#p2c7b28d467)" style="fill: none; stroke: #b0b0b0; stroke-opacity: 0.3; stroke-width: 0.8; stroke-linecap: square"/>
     </g>
     <g id="line2d_22">
      <g>
       <use xlink:href="#md6b4e26da2" x="45.082344" y="60.095733" style="stroke: #000000; stroke-width: 0.8"/>
      </g>
     </g>
     <g id="text_12">
      <!-- 80 -->
      <g transform="translate(25.357344 63.894561) scale(0.1 -0.1)">
       <use xlink:href="#DejaVuSans-1b"/>
       <use xlink:href="#DejaVuSans-13" transform="translate(63.625 0)"/>
      </g>
     </g>
    </g>
    <g id="text_13">
     <!-- FALSE+ rate on `clean` (% of answered) -->
     <g transform="translate(18.955 259.803203) rotate(-90) scale(0.1 -0.1)">
      <defs>
       <path id="DejaVuSans-29" d="M 628 4666 
L 3309 4666 
L 3309 4134 
L 1259 4134 
L 1259 2759 
L 3109 2759 
L 3109 2228 
L 1259 2228 
L 1259 0 
L 628 0 
L 628 4666 
z
" transform="scale(0.015625)"/>
       <path id="DejaVuSans-24" d="M 2188 4044 
L 1331 1722 
L 3047 1722 
L 2188 4044 
z
M 1831 4666 
L 2547 4666 
L 4325 0 
L 3669 0 
L 3244 1197 
L 1141 1197 
L 716 0 
L 50 0 
L 1831 4666 
z
" transform="scale(0.015625)"/>
       <path id="DejaVuSans-2f" d="M 628 4666 
L 1259 4666 
L 1259 531 
L 3531 531 
L 3531 0 
L 628 0 
L 628 4666 
z
" transform="scale(0.015625)"/>
       <path id="DejaVuSans-36" d="M 3425 4513 
L 3425 3897 
Q 3066 4069 2747 4153 
Q 2428 4238 2131 4238 
Q 1616 4238 1336 4038 
Q 1056 3838 1056 3469 
Q 1056 3159 1242 3001 
Q 1428 2844 1947 2747 
L 2328 2669 
Q 3034 2534 3370 2195 
Q 3706 1856 3706 1288 
Q 3706 609 3251 259 
Q 2797 -91 1919 -91 
Q 1588 -91 1214 -16 
Q 841 59 441 206 
L 441 856 
Q 825 641 1194 531 
Q 1563 422 1919 422 
Q 2459 422 2753 634 
Q 3047 847 3047 1241 
Q 3047 1584 2836 1778 
Q 2625 1972 2144 2069 
L 1759 2144 
Q 1053 2284 737 2584 
Q 422 2884 422 3419 
Q 422 4038 858 4394 
Q 1294 4750 2059 4750 
Q 2388 4750 2728 4690 
Q 3069 4631 3425 4513 
z
" transform="scale(0.015625)"/>
       <path id="DejaVuSans-28" d="M 628 4666 
L 3578 4666 
L 3578 4134 
L 1259 4134 
L 1259 2753 
L 3481 2753 
L 3481 2222 
L 1259 2222 
L 1259 531 
L 3634 531 
L 3634 0 
L 628 0 
L 628 4666 
z
" transform="scale(0.015625)"/>
       <path id="DejaVuSans-e" d="M 2944 4013 
L 2944 2272 
L 4684 2272 
L 4684 1741 
L 2944 1741 
L 2944 0 
L 2419 0 
L 2419 1741 
L 678 1741 
L 678 2272 
L 2419 2272 
L 2419 4013 
L 2944 4013 
z
" transform="scale(0.015625)"/>
       <path id="DejaVuSans-55" d="M 2631 2963 
Q 2534 3019 2420 3045 
Q 2306 3072 2169 3072 
Q 1681 3072 1420 2755 
Q 1159 2438 1159 1844 
L 1159 0 
L 581 0 
L 581 3500 
L 1159 3500 
L 1159 2956 
Q 1341 3275 1631 3429 
Q 1922 3584 2338 3584 
Q 2397 3584 2469 3576 
Q 2541 3569 2628 3553 
L 2631 2963 
z
" transform="scale(0.015625)"/>
       <path id="DejaVuSans-43" d="M 1147 5119 
L 2028 3950 
L 1550 3950 
L 531 5119 
L 1147 5119 
z
" transform="scale(0.015625)"/>
       <path id="DejaVuSans-8" d="M 4653 2053 
Q 4381 2053 4226 1822 
Q 4072 1591 4072 1178 
Q 4072 772 4226 539 
Q 4381 306 4653 306 
Q 4919 306 5073 539 
Q 5228 772 5228 1178 
Q 5228 1588 5073 1820 
Q 4919 2053 4653 2053 
z
M 4653 2450 
Q 5147 2450 5437 2106 
Q 5728 1763 5728 1178 
Q 5728 594 5436 251 
Q 5144 -91 4653 -91 
Q 4153 -91 3862 251 
Q 3572 594 3572 1178 
Q 3572 1766 3864 2108 
Q 4156 2450 4653 2450 
z
M 1428 4353 
Q 1159 4353 1004 4120 
Q 850 3888 850 3481 
Q 850 3069 1003 2837 
Q 1156 2606 1428 2606 
Q 1700 2606 1854 2837 
Q 2009 3069 2009 3481 
Q 2009 3884 1853 4118 
Q 1697 4353 1428 4353 
z
M 4250 4750 
L 4750 4750 
L 1831 -91 
L 1331 -91 
L 4250 4750 
z
M 1428 4750 
Q 1922 4750 2215 4408 
Q 2509 4066 2509 3481 
Q 2509 2891 2217 2550 
Q 1925 2209 1428 2209 
Q 931 2209 642 2551 
Q 353 2894 353 3481 
Q 353 4063 643 4406 
Q 934 4750 1428 4750 
z
" transform="scale(0.015625)"/>
       <path id="DejaVuSans-49" d="M 2375 4863 
L 2375 4384 
L 1825 4384 
Q 1516 4384 1395 4259 
Q 1275 4134 1275 3809 
L 1275 3500 
L 2222 3500 
L 2222 3053 
L 1275 3053 
L 1275 0 
L 697 0 
L 697 3053 
L 147 3053 
L 147 3500 
L 697 3500 
L 697 3744 
Q 697 4328 969 4595 
Q 1241 4863 1831 4863 
L 2375 4863 
z
" transform="scale(0.015625)"/>
       <path id="DejaVuSans-5a" d="M 269 3500 
L 844 3500 
L 1563 769 
L 2278 3500 
L 2956 3500 
L 3675 769 
L 4391 3500 
L 4966 3500 
L 4050 0 
L 3372 0 
L 2619 2869 
L 1863 0 
L 1184 0 
L 269 3500 
z
" transform="scale(0.015625)"/>
      </defs>
      <use xlink:href="#DejaVuSans-29"/>
      <use xlink:href="#DejaVuSans-24" transform="translate(48.34375 0)"/>
      <use xlink:href="#DejaVuSans-2f" transform="translate(116.75 0)"/>
      <use xlink:href="#DejaVuSans-36" transform="translate(172.46875 0)"/>
      <use xlink:href="#DejaVuSans-28" transform="translate(235.953125 0)"/>
      <use xlink:href="#DejaVuSans-e" transform="translate(299.140625 0)"/>
      <use xlink:href="#DejaVuSans-3" transform="translate(382.9375 0)"/>
      <use xlink:href="#DejaVuSans-55" transform="translate(414.71875 0)"/>
      <use xlink:href="#DejaVuSans-44" transform="translate(455.828125 0)"/>
      <use xlink:href="#DejaVuSans-57" transform="translate(517.109375 0)"/>
      <use xlink:href="#DejaVuSans-48" transform="translate(556.3125 0)"/>
      <use xlink:href="#DejaVuSans-3" transform="translate(617.84375 0)"/>
      <use xlink:href="#DejaVuSans-52" transform="translate(649.625 0)"/>
      <use xlink:href="#DejaVuSans-51" transform="translate(710.8125 0)"/>
      <use xlink:href="#DejaVuSans-3" transform="translate(774.1875 0)"/>
      <use xlink:href="#DejaVuSans-43" transform="translate(805.96875 0)"/>
      <use xlink:href="#DejaVuSans-46" transform="translate(855.96875 0)"/>
      <use xlink:href="#DejaVuSans-4f" transform="translate(910.953125 0)"/>
      <use xlink:href="#DejaVuSans-48" transform="translate(938.734375 0)"/>
      <use xlink:href="#DejaVuSans-44" transform="translate(1000.265625 0)"/>
      <use xlink:href="#DejaVuSans-51" transform="translate(1061.546875 0)"/>
      <use xlink:href="#DejaVuSans-43" transform="translate(1124.921875 0)"/>
      <use xlink:href="#DejaVuSans-3" transform="translate(1174.921875 0)"/>
      <use xlink:href="#DejaVuSans-b" transform="translate(1206.703125 0)"/>
      <use xlink:href="#DejaVuSans-8" transform="translate(1245.71875 0)"/>
      <use xlink:href="#DejaVuSans-3" transform="translate(1340.734375 0)"/>
      <use xlink:href="#DejaVuSans-52" transform="translate(1372.515625 0)"/>
      <use xlink:href="#DejaVuSans-49" transform="translate(1433.703125 0)"/>
      <use xlink:href="#DejaVuSans-3" transform="translate(1468.90625 0)"/>
      <use xlink:href="#DejaVuSans-44" transform="translate(1500.6875 0)"/>
      <use xlink:href="#DejaVuSans-51" transform="translate(1561.96875 0)"/>
      <use xlink:href="#DejaVuSans-56" transform="translate(1625.34375 0)"/>
      <use xlink:href="#DejaVuSans-5a" transform="translate(1677.4375 0)"/>
      <use xlink:href="#DejaVuSans-48" transform="translate(1759.21875 0)"/>
      <use xlink:href="#DejaVuSans-55" transform="translate(1820.75 0)"/>
      <use xlink:href="#DejaVuSans-48" transform="translate(1859.65625 0)"/>
      <use xlink:href="#DejaVuSans-47" transform="translate(1921.1875 0)"/>
      <use xlink:href="#DejaVuSans-c" transform="translate(1984.671875 0)"/>
     </g>
    </g>
   </g>
   <g id="line2d_23"/>
   <g id="patch_3">
    <path d="M 45.082344 291.077656 
L 45.082344 26.16 
" style="fill: none; stroke: #000000; stroke-width: 0.8; stroke-linejoin: miter; stroke-linecap: square"/>
   </g>
   <g id="patch_4">
    <path d="M 507.6 291.077656 
L 507.6 26.16 
" style="fill: none; stroke: #000000; stroke-width: 0.8; stroke-linejoin: miter; stroke-linecap: square"/>
   </g>
   <g id="patch_5">
    <path d="M 45.082344 291.077656 
L 507.6 291.077656 
" style="fill: none; stroke: #000000; stroke-width: 0.8; stroke-linejoin: miter; stroke-linecap: square"/>
   </g>
   <g id="patch_6">
    <path d="M 45.082344 26.16 
L 507.6 26.16 
" style="fill: none; stroke: #000000; stroke-width: 0.8; stroke-linejoin: miter; stroke-linecap: square"/>
   </g>
   <g id="line2d_24">
    <defs>
     <path id="m993d09557a" d="M 0 4 
C 1.060812 4 2.078319 3.578535 2.828427 2.828427 
C 3.578535 2.078319 4 1.060812 4 0 
C 4 -1.060812 3.578535 -2.078319 2.828427 -2.828427 
C 2.078319 -3.578535 1.060812 -4 0 -4 
C -1.060812 -4 -2.078319 -3.578535 -2.828427 -2.828427 
C -3.578535 -2.078319 -4 -1.060812 -4 0 
C -4 1.060812 -3.578535 2.078319 -2.828427 2.828427 
C -2.078319 3.578535 -1.060812 4 0 4 
z
" style="stroke: #1f4e79; stroke-width: 1.6"/>
    </defs>
    <g clip-path="url(#p2c7b28d467)">
     <use xlink:href="#m993d09557a" x="367.580138" y="154.638097" style="fill: #ffffff; stroke: #1f4e79; stroke-width: 1.6"/>
    </g>
   </g>
   <g id="line2d_25">
    <g clip-path="url(#p2c7b28d467)">
     <use xlink:href="#m993d09557a" x="402.482351" y="91.784448" style="fill: #ffffff; stroke: #1f4e79; stroke-width: 1.6"/>
    </g>
   </g>
   <g id="line2d_26">
    <g clip-path="url(#p2c7b28d467)">
     <use xlink:href="#m993d09557a" x="402.482351" y="69.218242" style="fill: #ffffff; stroke: #1f4e79; stroke-width: 1.6"/>
    </g>
   </g>
   <g id="line2d_27">
    <defs>
     <path id="m4b70d176cb" d="M 0 4 
C 1.060812 4 2.078319 3.578535 2.828427 2.828427 
C 3.578535 2.078319 4 1.060812 4 0 
C 4 -1.060812 3.578535 -2.078319 2.828427 -2.828427 
C 2.078319 -3.578535 1.060812 -4 0 -4 
C -1.060812 -4 -2.078319 -3.578535 -2.828427 -2.828427 
C -3.578535 -2.078319 -4 -1.060812 -4 0 
C -4 1.060812 -3.578535 2.078319 -2.828427 2.828427 
C -2.078319 3.578535 -1.060812 4 0 4 
z
" style="stroke: #2f7d32; stroke-width: 1.6"/>
    </defs>
    <g clip-path="url(#p2c7b28d467)">
     <use xlink:href="#m4b70d176cb" x="199.391899" y="269.598867" style="fill: #ffffff; stroke: #2f7d32; stroke-width: 1.6"/>
    </g>
   </g>
   <g id="line2d_28">
    <g clip-path="url(#p2c7b28d467)">
     <use xlink:href="#m4b70d176cb" x="234.294112" y="279.035945" style="fill: #ffffff; stroke: #2f7d32; stroke-width: 1.6"/>
    </g>
   </g>
   <g id="line2d_29">
    <g clip-path="url(#p2c7b28d467)">
     <use xlink:href="#m4b70d176cb" x="261.366372" y="238.491461" style="fill: #ffffff; stroke: #2f7d32; stroke-width: 1.6"/>
    </g>
   </g>
   <g id="line2d_30">
    <g clip-path="url(#p2c7b28d467)">
     <use xlink:href="#m4b70d176cb" x="272.92961" y="250.72471" style="fill: #ffffff; stroke: #2f7d32; stroke-width: 1.6"/>
    </g>
   </g>
   <g id="line2d_31">
    <g clip-path="url(#p2c7b28d467)">
     <use xlink:href="#m4b70d176cb" x="283.486019" y="269.261828" style="fill: #ffffff; stroke: #2f7d32; stroke-width: 1.6"/>
    </g>
   </g>
   <g id="line2d_32">
    <g clip-path="url(#p2c7b28d467)">
     <use xlink:href="#m4b70d176cb" x="318.388232" y="249.713595" style="fill: #ffffff; stroke: #2f7d32; stroke-width: 1.6"/>
    </g>
   </g>
   <g id="line2d_33">
    <g clip-path="url(#p2c7b28d467)">
     <use xlink:href="#m4b70d176cb" x="367.580138" y="187.810856" style="fill: #ffffff; stroke: #2f7d32; stroke-width: 1.6"/>
    </g>
   </g>
   <g id="line2d_34">
    <g clip-path="url(#p2c7b28d467)">
     <use xlink:href="#m4b70d176cb" x="402.482351" y="203.015038" style="fill: #ffffff; stroke: #2f7d32; stroke-width: 1.6"/>
    </g>
   </g>
   <g id="line2d_35">
    <g clip-path="url(#p2c7b28d467)">
     <use xlink:href="#m4b70d176cb" x="486.57647" y="126.994131" style="fill: #ffffff; stroke: #2f7d32; stroke-width: 1.6"/>
    </g>
   </g>
   <g id="line2d_36">
    <defs>
     <path id="ma0d8515f26" d="M 0 4 
C 1.060812 4 2.078319 3.578535 2.828427 2.828427 
C 3.578535 2.078319 4 1.060812 4 0 
C 4 -1.060812 3.578535 -2.078319 2.828427 -2.828427 
C 2.078319 -3.578535 1.060812 -4 0 -4 
C -1.060812 -4 -2.078319 -3.578535 -2.828427 -2.828427 
C -3.578535 -2.078319 -4 -1.060812 -4 0 
C -4 1.060812 -3.578535 2.078319 -2.828427 2.828427 
C -2.078319 3.578535 -1.060812 4 0 4 
z
" style="stroke: #00838f; stroke-width: 1.6"/>
    </defs>
    <g clip-path="url(#p2c7b28d467)">
     <use xlink:href="#ma0d8515f26" x="283.486019" y="260.161788" style="fill: #ffffff; stroke: #00838f; stroke-width: 1.6"/>
    </g>
   </g>
   <g id="line2d_37">
    <g clip-path="url(#p2c7b28d467)">
     <use xlink:href="#ma0d8515f26" x="318.388232" y="242.545909" style="fill: #ffffff; stroke: #00838f; stroke-width: 1.6"/>
    </g>
   </g>
   <g id="line2d_38">
    <g clip-path="url(#p2c7b28d467)">
     <use xlink:href="#ma0d8515f26" x="367.580138" y="222.413476" style="fill: #ffffff; stroke: #00838f; stroke-width: 1.6"/>
    </g>
   </g>
   <g id="line2d_39">
    <defs>
     <path id="m824cf102a1" d="M 0 4 
C 1.060812 4 2.078319 3.578535 2.828427 2.828427 
C 3.578535 2.078319 4 1.060812 4 0 
C 4 -1.060812 3.578535 -2.078319 2.828427 -2.828427 
C 2.078319 -3.578535 1.060812 -4 0 -4 
C -1.060812 -4 -2.078319 -3.578535 -2.828427 -2.828427 
C -3.578535 -2.078319 -4 -1.060812 -4 0 
C -4 1.060812 -3.578535 2.078319 -2.828427 2.828427 
C -2.078319 3.578535 -1.060812 4 0 4 
z
" style="stroke: #8d6e63; stroke-width: 1.6"/>
    </defs>
    <g clip-path="url(#p2c7b28d467)">
     <use xlink:href="#m824cf102a1" x="150.199993" y="250.72471" style="fill: #ffffff; stroke: #8d6e63; stroke-width: 1.6"/>
    </g>
   </g>
   <g id="line2d_40">
    <g clip-path="url(#p2c7b28d467)">
     <use xlink:href="#m824cf102a1" x="234.294112" y="245.524688" style="fill: #ffffff; stroke: #8d6e63; stroke-width: 1.6"/>
    </g>
   </g>
   <g id="line2d_41">
    <g clip-path="url(#p2c7b28d467)">
     <use xlink:href="#m824cf102a1" x="283.486019" y="239.939478" style="fill: #ffffff; stroke: #8d6e63; stroke-width: 1.6"/>
    </g>
   </g>
   <g id="line2d_42">
    <g clip-path="url(#p2c7b28d467)">
     <use xlink:href="#m824cf102a1" x="318.388232" y="250.72471" style="fill: #ffffff; stroke: #8d6e63; stroke-width: 1.6"/>
    </g>
   </g>
   <g id="line2d_43">
    <g clip-path="url(#p2c7b28d467)">
     <use xlink:href="#m824cf102a1" x="367.580138" y="197.946977" style="fill: #ffffff; stroke: #8d6e63; stroke-width: 1.6"/>
    </g>
   </g>
   <g id="line2d_44">
    <g clip-path="url(#p2c7b28d467)">
     <use xlink:href="#m824cf102a1" x="402.482351" y="188.923357" style="fill: #ffffff; stroke: #8d6e63; stroke-width: 1.6"/>
    </g>
   </g>
   <g id="text_14">
    <!-- Invented impossibilities vs depth, five ladders -->
    <g transform="translate(138.463047 20.16) scale(0.12 -0.12)">
     <defs>
      <path id="DejaVuSans-2c" d="M 628 4666 
L 1259 4666 
L 1259 0 
L 628 0 
L 628 4666 
z
" transform="scale(0.015625)"/>
      <path id="DejaVuSans-59" d="M 191 3500 
L 800 3500 
L 1894 563 
L 2988 3500 
L 3597 3500 
L 2284 0 
L 1503 0 
L 191 3500 
z
" transform="scale(0.015625)"/>
      <path id="DejaVuSans-45" d="M 3116 1747 
Q 3116 2381 2855 2742 
Q 2594 3103 2138 3103 
Q 1681 3103 1420 2742 
Q 1159 2381 1159 1747 
Q 1159 1113 1420 752 
Q 1681 391 2138 391 
Q 2594 391 2855 752 
Q 3116 1113 3116 1747 
z
M 1159 2969 
Q 1341 3281 1617 3432 
Q 1894 3584 2278 3584 
Q 2916 3584 3314 3078 
Q 3713 2572 3713 1747 
Q 3713 922 3314 415 
Q 2916 -91 2278 -91 
Q 1894 -91 1617 61 
Q 1341 213 1159 525 
L 1159 0 
L 581 0 
L 581 4863 
L 1159 4863 
L 1159 2969 
z
" transform="scale(0.015625)"/>
      <path id="DejaVuSans-13af" d="M 3431 3500 
L 3431 0 
L 2853 0 
L 2853 3053 
L 1275 3053 
L 1275 0 
L 697 0 
L 697 3053 
L 147 3053 
L 147 3500 
L 697 3500 
L 697 3744 
Q 697 4316 967 4589 
Q 1238 4863 1797 4863 
L 2375 4863 
L 2375 4384 
L 1825 4384 
Q 1516 4384 1395 4259 
Q 1275 4134 1275 3809 
L 1275 3500 
L 3431 3500 
z
M 2853 4856 
L 3431 4856 
L 3431 4128 
L 2853 4128 
L 2853 4856 
z
" transform="scale(0.015625)"/>
     </defs>
     <use xlink:href="#DejaVuSans-2c"/>
     <use xlink:href="#DejaVuSans-51" transform="translate(29.5 0)"/>
     <use xlink:href="#DejaVuSans-59" transform="translate(92.875 0)"/>
     <use xlink:href="#DejaVuSans-48" transform="translate(152.0625 0)"/>
     <use xlink:href="#DejaVuSans-51" transform="translate(213.59375 0)"/>
     <use xlink:href="#DejaVuSans-57" transform="translate(276.96875 0)"/>
     <use xlink:href="#DejaVuSans-48" transform="translate(316.171875 0)"/>
     <use xlink:href="#DejaVuSans-47" transform="translate(377.703125 0)"/>
     <use xlink:href="#DejaVuSans-3" transform="translate(441.1875 0)"/>
     <use xlink:href="#DejaVuSans-4c" transform="translate(472.96875 0)"/>
     <use xlink:href="#DejaVuSans-50" transform="translate(500.75 0)"/>
     <use xlink:href="#DejaVuSans-53" transform="translate(598.15625 0)"/>
     <use xlink:href="#DejaVuSans-52" transform="translate(661.640625 0)"/>
     <use xlink:href="#DejaVuSans-56" transform="translate(722.828125 0)"/>
     <use xlink:href="#DejaVuSans-56" transform="translate(774.921875 0)"/>
     <use xlink:href="#DejaVuSans-4c" transform="translate(827.015625 0)"/>
     <use xlink:href="#DejaVuSans-45" transform="translate(854.796875 0)"/>
     <use xlink:href="#DejaVuSans-4c" transform="translate(918.28125 0)"/>
     <use xlink:href="#DejaVuSans-4f" transform="translate(946.0625 0)"/>
     <use xlink:href="#DejaVuSans-4c" transform="translate(973.84375 0)"/>
     <use xlink:href="#DejaVuSans-57" transform="translate(1001.625 0)"/>
     <use xlink:href="#DejaVuSans-4c" transform="translate(1040.828125 0)"/>
     <use xlink:href="#DejaVuSans-48" transform="translate(1068.609375 0)"/>
     <use xlink:href="#DejaVuSans-56" transform="translate(1130.140625 0)"/>
     <use xlink:href="#DejaVuSans-3" transform="translate(1182.234375 0)"/>
     <use xlink:href="#DejaVuSans-59" transform="translate(1214.015625 0)"/>
     <use xlink:href="#DejaVuSans-56" transform="translate(1273.203125 0)"/>
     <use xlink:href="#DejaVuSans-3" transform="translate(1325.296875 0)"/>
     <use xlink:href="#DejaVuSans-47" transform="translate(1357.078125 0)"/>
     <use xlink:href="#DejaVuSans-48" transform="translate(1420.5625 0)"/>
     <use xlink:href="#DejaVuSans-53" transform="translate(1482.09375 0)"/>
     <use xlink:href="#DejaVuSans-57" transform="translate(1545.578125 0)"/>
     <use xlink:href="#DejaVuSans-4b" transform="translate(1584.78125 0)"/>
     <use xlink:href="#DejaVuSans-f" transform="translate(1648.15625 0)"/>
     <use xlink:href="#DejaVuSans-3" transform="translate(1679.9375 0)"/>
     <use xlink:href="#DejaVuSans-13af" transform="translate(1711.71875 0)"/>
     <use xlink:href="#DejaVuSans-59" transform="translate(1774.703125 0)"/>
     <use xlink:href="#DejaVuSans-48" transform="translate(1833.890625 0)"/>
     <use xlink:href="#DejaVuSans-3" transform="translate(1895.421875 0)"/>
     <use xlink:href="#DejaVuSans-4f" transform="translate(1927.203125 0)"/>
     <use xlink:href="#DejaVuSans-44" transform="translate(1954.984375 0)"/>
     <use xlink:href="#DejaVuSans-47" transform="translate(2016.265625 0)"/>
     <use xlink:href="#DejaVuSans-47" transform="translate(2079.75 0)"/>
     <use xlink:href="#DejaVuSans-48" transform="translate(2143.234375 0)"/>
     <use xlink:href="#DejaVuSans-55" transform="translate(2204.765625 0)"/>
     <use xlink:href="#DejaVuSans-56" transform="translate(2245.875 0)"/>
    </g>
   </g>
   <g id="line2d_45">
    <path d="M 66.105874 279.035945 
L 150.199993 279.035945 
L 199.391899 279.035945 
L 234.294112 279.035945 
L 248.583806 269.261828 
L 261.366372 249.713595 
L 272.92961 251.668418 
L 283.486019 249.713595 
L 318.388232 235.247902 
L 402.482351 116.541256 
L 486.57647 38.201712 
" clip-path="url(#p2c7b28d467)" style="fill: none; stroke: #1f4e79; stroke-width: 1.5; stroke-linecap: square"/>
    <defs>
     <path id="mff169dc241" d="M 0 3 
C 0.795609 3 1.55874 2.683901 2.12132 2.12132 
C 2.683901 1.55874 3 0.795609 3 0 
C 3 -0.795609 2.683901 -1.55874 2.12132 -2.12132 
C 1.55874 -2.683901 0.795609 -3 0 -3 
C -0.795609 -3 -1.55874 -2.683901 -2.12132 -2.12132 
C -2.683901 -1.55874 -3 -0.795609 -3 0 
C -3 0.795609 -2.683901 1.55874 -2.12132 2.12132 
C -1.55874 2.683901 -0.795609 3 0 3 
z
" style="stroke: #1f4e79"/>
    </defs>
    <g clip-path="url(#p2c7b28d467)">
     <use xlink:href="#mff169dc241" x="66.105874" y="279.035945" style="fill: #1f4e79; stroke: #1f4e79"/>
     <use xlink:href="#mff169dc241" x="150.199993" y="279.035945" style="fill: #1f4e79; stroke: #1f4e79"/>
     <use xlink:href="#mff169dc241" x="199.391899" y="279.035945" style="fill: #1f4e79; stroke: #1f4e79"/>
     <use xlink:href="#mff169dc241" x="234.294112" y="279.035945" style="fill: #1f4e79; stroke: #1f4e79"/>
     <use xlink:href="#mff169dc241" x="248.583806" y="269.261828" style="fill: #1f4e79; stroke: #1f4e79"/>
     <use xlink:href="#mff169dc241" x="261.366372" y="249.713595" style="fill: #1f4e79; stroke: #1f4e79"/>
     <use xlink:href="#mff169dc241" x="272.92961" y="251.668418" style="fill: #1f4e79; stroke: #1f4e79"/>
     <use xlink:href="#mff169dc241" x="283.486019" y="249.713595" style="fill: #1f4e79; stroke: #1f4e79"/>
     <use xlink:href="#mff169dc241" x="318.388232" y="235.247902" style="fill: #1f4e79; stroke: #1f4e79"/>
     <use xlink:href="#mff169dc241" x="402.482351" y="116.541256" style="fill: #1f4e79; stroke: #1f4e79"/>
     <use xlink:href="#mff169dc241" x="486.57647" y="38.201712" style="fill: #1f4e79; stroke: #1f4e79"/>
    </g>
   </g>
   <g id="line2d_46">
    <path d="M 199.391899 279.035945 
L 218.093794 275.571701 
L 234.294112 258.5103 
L 283.486019 257.984001 
L 318.388232 260.161788 
L 345.460491 225.82131 
L 357.023729 203.015038 
L 367.580138 142.198312 
L 402.482351 73.779496 
" clip-path="url(#p2c7b28d467)" style="fill: none; stroke: #b45f06; stroke-width: 1.5; stroke-linecap: square"/>
    <defs>
     <path id="maa2f1f69fe" d="M 0 3 
C 0.795609 3 1.55874 2.683901 2.12132 2.12132 
C 2.683901 1.55874 3 0.795609 3 0 
C 3 -0.795609 2.683901 -1.55874 2.12132 -2.12132 
C 1.55874 -2.683901 0.795609 -3 0 -3 
C -0.795609 -3 -1.55874 -2.683901 -2.12132 -2.12132 
C -2.683901 -1.55874 -3 -0.795609 -3 0 
C -3 0.795609 -2.683901 1.55874 -2.12132 2.12132 
C -1.55874 2.683901 -0.795609 3 0 3 
z
" style="stroke: #b45f06"/>
    </defs>
    <g clip-path="url(#p2c7b28d467)">
     <use xlink:href="#maa2f1f69fe" x="199.391899" y="279.035945" style="fill: #b45f06; stroke: #b45f06"/>
     <use xlink:href="#maa2f1f69fe" x="218.093794" y="275.571701" style="fill: #b45f06; stroke: #b45f06"/>
     <use xlink:href="#maa2f1f69fe" x="234.294112" y="258.5103" style="fill: #b45f06; stroke: #b45f06"/>
     <use xlink:href="#maa2f1f69fe" x="283.486019" y="257.984001" style="fill: #b45f06; stroke: #b45f06"/>
     <use xlink:href="#maa2f1f69fe" x="318.388232" y="260.161788" style="fill: #b45f06; stroke: #b45f06"/>
     <use xlink:href="#maa2f1f69fe" x="345.460491" y="225.82131" style="fill: #b45f06; stroke: #b45f06"/>
     <use xlink:href="#maa2f1f69fe" x="357.023729" y="203.015038" style="fill: #b45f06; stroke: #b45f06"/>
     <use xlink:href="#maa2f1f69fe" x="367.580138" y="142.198312" style="fill: #b45f06; stroke: #b45f06"/>
     <use xlink:href="#maa2f1f69fe" x="402.482351" y="73.779496" style="fill: #b45f06; stroke: #b45f06"/>
    </g>
   </g>
   <g id="line2d_47">
    <path d="M 66.105874 260.790927 
L 150.199993 279.035945 
L 248.583806 224.300892 
" clip-path="url(#p2c7b28d467)" style="fill: none; stroke: #2f7d32; stroke-width: 1.5; stroke-linecap: square"/>
    <defs>
     <path id="m3e261dde1f" d="M 0 3 
C 0.795609 3 1.55874 2.683901 2.12132 2.12132 
C 2.683901 1.55874 3 0.795609 3 0 
C 3 -0.795609 2.683901 -1.55874 2.12132 -2.12132 
C 1.55874 -2.683901 0.795609 -3 0 -3 
C -0.795609 -3 -1.55874 -2.683901 -2.12132 -2.12132 
C -2.683901 -1.55874 -3 -0.795609 -3 0 
C -3 0.795609 -2.683901 1.55874 -2.12132 2.12132 
C -1.55874 2.683901 -0.795609 3 0 3 
z
" style="stroke: #2f7d32"/>
    </defs>
    <g clip-path="url(#p2c7b28d467)">
     <use xlink:href="#m3e261dde1f" x="66.105874" y="260.790927" style="fill: #2f7d32; stroke: #2f7d32"/>
     <use xlink:href="#m3e261dde1f" x="150.199993" y="279.035945" style="fill: #2f7d32; stroke: #2f7d32"/>
     <use xlink:href="#m3e261dde1f" x="248.583806" y="224.300892" style="fill: #2f7d32; stroke: #2f7d32"/>
    </g>
   </g>
   <g id="line2d_48">
    <path d="M 66.105874 279.035945 
L 150.199993 279.035945 
L 234.294112 269.913436 
L 402.482351 224.300892 
" clip-path="url(#p2c7b28d467)" style="fill: none; stroke: #00838f; stroke-width: 1.5; stroke-linecap: square"/>
    <defs>
     <path id="m5e2a0453f8" d="M 0 3 
C 0.795609 3 1.55874 2.683901 2.12132 2.12132 
C 2.683901 1.55874 3 0.795609 3 0 
C 3 -0.795609 2.683901 -1.55874 2.12132 -2.12132 
C 1.55874 -2.683901 0.795609 -3 0 -3 
C -0.795609 -3 -1.55874 -2.683901 -2.12132 -2.12132 
C -2.683901 -1.55874 -3 -0.795609 -3 0 
C -3 0.795609 -2.683901 1.55874 -2.12132 2.12132 
C -1.55874 2.683901 -0.795609 3 0 3 
z
" style="stroke: #00838f"/>
    </defs>
    <g clip-path="url(#p2c7b28d467)">
     <use xlink:href="#m5e2a0453f8" x="66.105874" y="279.035945" style="fill: #00838f; stroke: #00838f"/>
     <use xlink:href="#m5e2a0453f8" x="150.199993" y="279.035945" style="fill: #00838f; stroke: #00838f"/>
     <use xlink:href="#m5e2a0453f8" x="234.294112" y="269.913436" style="fill: #00838f; stroke: #00838f"/>
     <use xlink:href="#m5e2a0453f8" x="402.482351" y="224.300892" style="fill: #00838f; stroke: #00838f"/>
    </g>
   </g>
   <g id="line2d_49">
    <path d="M 66.105874 279.035945 
" clip-path="url(#p2c7b28d467)" style="fill: none; stroke: #8d6e63; stroke-width: 1.5; stroke-linecap: square"/>
    <defs>
     <path id="m21519cee13" d="M 0 3 
C 0.795609 3 1.55874 2.683901 2.12132 2.12132 
C 2.683901 1.55874 3 0.795609 3 0 
C 3 -0.795609 2.683901 -1.55874 2.12132 -2.12132 
C 1.55874 -2.683901 0.795609 -3 0 -3 
C -0.795609 -3 -1.55874 -2.683901 -2.12132 -2.12132 
C -2.683901 -1.55874 -3 -0.795609 -3 0 
C -3 0.795609 -2.683901 1.55874 -2.12132 2.12132 
C -1.55874 2.683901 -0.795609 3 0 3 
z
" style="stroke: #8d6e63"/>
    </defs>
    <g clip-path="url(#p2c7b28d467)">
     <use xlink:href="#m21519cee13" x="66.105874" y="279.035945" style="fill: #8d6e63; stroke: #8d6e63"/>
    </g>
   </g>
   <g id="legend_1">
    <g id="patch_7">
     <path d="M 50.682344 104.56375 
L 278.818594 104.56375 
Q 280.418594 104.56375 280.418594 102.96375 
L 280.418594 31.76 
Q 280.418594 30.16 278.818594 30.16 
L 50.682344 30.16 
Q 49.082344 30.16 49.082344 31.76 
L 49.082344 102.96375 
Q 49.082344 104.56375 50.682344 104.56375 
z
" style="fill: #ffffff; opacity: 0.8; stroke: #cccccc; stroke-linejoin: miter"/>
    </g>
    <g id="line2d_50">
     <path d="M 52.282344 36.63875 
L 60.282344 36.63875 
L 68.282344 36.63875 
" style="fill: none; stroke: #1f4e79; stroke-width: 1.5; stroke-linecap: square"/>
     <g>
      <use xlink:href="#mff169dc241" x="60.282344" y="36.63875" style="fill: #1f4e79; stroke: #1f4e79"/>
     </g>
    </g>
    <g id="text_15">
     <!-- Qwen3.8-27B AWQ-FP8 (clean) - qualified -->
     <g transform="translate(74.682344 39.43875) scale(0.08 -0.08)">
      <defs>
       <path id="DejaVuSans-34" d="M 2522 4238 
Q 1834 4238 1429 3725 
Q 1025 3213 1025 2328 
Q 1025 1447 1429 934 
Q 1834 422 2522 422 
Q 3209 422 3611 934 
Q 4013 1447 4013 2328 
Q 4013 3213 3611 3725 
Q 3209 4238 2522 4238 
z
M 3406 84 
L 4238 -825 
L 3475 -825 
L 2784 -78 
Q 2681 -84 2626 -87 
Q 2572 -91 2522 -91 
Q 1538 -91 948 567 
Q 359 1225 359 2328 
Q 359 3434 948 4092 
Q 1538 4750 2522 4750 
Q 3503 4750 4090 4092 
Q 4678 3434 4678 2328 
Q 4678 1516 4351 937 
Q 4025 359 3406 84 
z
" transform="scale(0.015625)"/>
       <path id="DejaVuSans-11" d="M 684 794 
L 1344 794 
L 1344 0 
L 684 0 
L 684 794 
z
" transform="scale(0.015625)"/>
       <path id="DejaVuSans-10" d="M 313 2009 
L 1997 2009 
L 1997 1497 
L 313 1497 
L 313 2009 
z
" transform="scale(0.015625)"/>
       <path id="DejaVuSans-25" d="M 1259 2228 
L 1259 519 
L 2272 519 
Q 2781 519 3026 730 
Q 3272 941 3272 1375 
Q 3272 1813 3026 2020 
Q 2781 2228 2272 2228 
L 1259 2228 
z
M 1259 4147 
L 1259 2741 
L 2194 2741 
Q 2656 2741 2882 2914 
Q 3109 3088 3109 3444 
Q 3109 3797 2882 3972 
Q 2656 4147 2194 4147 
L 1259 4147 
z
M 628 4666 
L 2241 4666 
Q 2963 4666 3353 4366 
Q 3744 4066 3744 3513 
Q 3744 3084 3544 2831 
Q 3344 2578 2956 2516 
Q 3422 2416 3680 2098 
Q 3938 1781 3938 1306 
Q 3938 681 3513 340 
Q 3088 0 2303 0 
L 628 0 
L 628 4666 
z
" transform="scale(0.015625)"/>
       <path id="DejaVuSans-3a" d="M 213 4666 
L 850 4666 
L 1831 722 
L 2809 4666 
L 3519 4666 
L 4500 722 
L 5478 4666 
L 6119 4666 
L 4947 0 
L 4153 0 
L 3169 4050 
L 2175 0 
L 1381 0 
L 213 4666 
z
" transform="scale(0.015625)"/>
       <path id="DejaVuSans-33" d="M 1259 4147 
L 1259 2394 
L 2053 2394 
Q 2494 2394 2734 2622 
Q 2975 2850 2975 3272 
Q 2975 3691 2734 3919 
Q 2494 4147 2053 4147 
L 1259 4147 
z
M 628 4666 
L 2053 4666 
Q 2838 4666 3239 4311 
Q 3641 3956 3641 3272 
Q 3641 2581 3239 2228 
Q 2838 1875 2053 1875 
L 1259 1875 
L 1259 0 
L 628 0 
L 628 4666 
z
" transform="scale(0.015625)"/>
       <path id="DejaVuSans-54" d="M 947 1747 
Q 947 1113 1208 752 
Q 1469 391 1925 391 
Q 2381 391 2643 752 
Q 2906 1113 2906 1747 
Q 2906 2381 2643 2742 
Q 2381 3103 1925 3103 
Q 1469 3103 1208 2742 
Q 947 2381 947 1747 
z
M 2906 525 
Q 2725 213 2448 61 
Q 2172 -91 1784 -91 
Q 1150 -91 751 415 
Q 353 922 353 1747 
Q 353 2572 751 3078 
Q 1150 3584 1784 3584 
Q 2172 3584 2448 3432 
Q 2725 3281 2906 2969 
L 2906 3500 
L 3481 3500 
L 3481 -1331 
L 2906 -1331 
L 2906 525 
z
" transform="scale(0.015625)"/>
       <path id="DejaVuSans-58" d="M 544 1381 
L 544 3500 
L 1119 3500 
L 1119 1403 
Q 1119 906 1312 657 
Q 1506 409 1894 409 
Q 2359 409 2629 706 
Q 2900 1003 2900 1516 
L 2900 3500 
L 3475 3500 
L 3475 0 
L 2900 0 
L 2900 538 
Q 2691 219 2414 64 
Q 2138 -91 1772 -91 
Q 1169 -91 856 284 
Q 544 659 544 1381 
z
M 1991 3584 
L 1991 3584 
z
" transform="scale(0.015625)"/>
      </defs>
      <use xlink:href="#DejaVuSans-34"/>
      <use xlink:href="#DejaVuSans-5a" transform="translate(78.71875 0)"/>
      <use xlink:href="#DejaVuSans-48" transform="translate(160.5 0)"/>
      <use xlink:href="#DejaVuSans-51" transform="translate(222.03125 0)"/>
      <use xlink:href="#DejaVuSans-16" transform="translate(285.40625 0)"/>
      <use xlink:href="#DejaVuSans-11" transform="translate(349.03125 0)"/>
      <use xlink:href="#DejaVuSans-1b" transform="translate(380.8125 0)"/>
      <use xlink:href="#DejaVuSans-10" transform="translate(444.4375 0)"/>
      <use xlink:href="#DejaVuSans-15" transform="translate(480.515625 0)"/>
      <use xlink:href="#DejaVuSans-1a" transform="translate(544.140625 0)"/>
      <use xlink:href="#DejaVuSans-25" transform="translate(607.765625 0)"/>
      <use xlink:href="#DejaVuSans-3" transform="translate(676.375 0)"/>
      <use xlink:href="#DejaVuSans-24" transform="translate(708.15625 0)"/>
      <use xlink:href="#DejaVuSans-3a" transform="translate(771.09375 0)"/>
      <use xlink:href="#DejaVuSans-34" transform="translate(869.96875 0)"/>
      <use xlink:href="#DejaVuSans-10" transform="translate(951.46875 0)"/>
      <use xlink:href="#DejaVuSans-29" transform="translate(987.546875 0)"/>
      <use xlink:href="#DejaVuSans-33" transform="translate(1045.0625 0)"/>
      <use xlink:href="#DejaVuSans-1b" transform="translate(1105.359375 0)"/>
      <use xlink:href="#DejaVuSans-3" transform="translate(1168.984375 0)"/>
      <use xlink:href="#DejaVuSans-b" transform="translate(1200.765625 0)"/>
      <use xlink:href="#DejaVuSans-46" transform="translate(1239.78125 0)"/>
      <use xlink:href="#DejaVuSans-4f" transform="translate(1294.765625 0)"/>
      <use xlink:href="#DejaVuSans-48" transform="translate(1322.546875 0)"/>
      <use xlink:href="#DejaVuSans-44" transform="translate(1384.078125 0)"/>
      <use xlink:href="#DejaVuSans-51" transform="translate(1445.359375 0)"/>
      <use xlink:href="#DejaVuSans-c" transform="translate(1508.734375 0)"/>
      <use xlink:href="#DejaVuSans-3" transform="translate(1547.75 0)"/>
      <use xlink:href="#DejaVuSans-10" transform="translate(1579.53125 0)"/>
      <use xlink:href="#DejaVuSans-3" transform="translate(1615.609375 0)"/>
      <use xlink:href="#DejaVuSans-54" transform="translate(1647.390625 0)"/>
      <use xlink:href="#DejaVuSans-58" transform="translate(1710.875 0)"/>
      <use xlink:href="#DejaVuSans-44" transform="translate(1774.25 0)"/>
      <use xlink:href="#DejaVuSans-4f" transform="translate(1835.53125 0)"/>
      <use xlink:href="#DejaVuSans-4c" transform="translate(1863.3125 0)"/>
      <use xlink:href="#DejaVuSans-13af" transform="translate(1891.09375 0)"/>
      <use xlink:href="#DejaVuSans-48" transform="translate(1954.078125 0)"/>
      <use xlink:href="#DejaVuSans-47" transform="translate(2015.609375 0)"/>
     </g>
    </g>
    <g id="line2d_51">
     <path d="M 52.282344 48.639375 
L 60.282344 48.639375 
L 68.282344 48.639375 
" style="fill: none; stroke: #b45f06; stroke-width: 1.5; stroke-linecap: square"/>
     <g>
      <use xlink:href="#maa2f1f69fe" x="60.282344" y="48.639375" style="fill: #b45f06; stroke: #b45f06"/>
     </g>
    </g>
    <g id="text_16">
     <!-- Qwen3.8-Flash-Next NVFP4 (clean) - qualified -->
     <g transform="translate(74.682344 51.439375) scale(0.08 -0.08)">
      <defs>
       <path id="DejaVuSans-31" d="M 628 4666 
L 1478 4666 
L 3547 763 
L 3547 4666 
L 4159 4666 
L 4159 0 
L 3309 0 
L 1241 3903 
L 1241 0 
L 628 0 
L 628 4666 
z
" transform="scale(0.015625)"/>
       <path id="DejaVuSans-5b" d="M 3513 3500 
L 2247 1797 
L 3578 0 
L 2900 0 
L 1881 1375 
L 863 0 
L 184 0 
L 1544 1831 
L 300 3500 
L 978 3500 
L 1906 2253 
L 2834 3500 
L 3513 3500 
z
" transform="scale(0.015625)"/>
       <path id="DejaVuSans-39" d="M 1831 0 
L 50 4666 
L 709 4666 
L 2188 738 
L 3669 4666 
L 4325 4666 
L 2547 0 
L 1831 0 
z
" transform="scale(0.015625)"/>
      </defs>
      <use xlink:href="#DejaVuSans-34"/>
      <use xlink:href="#DejaVuSans-5a" transform="translate(78.71875 0)"/>
      <use xlink:href="#DejaVuSans-48" transform="translate(160.5 0)"/>
      <use xlink:href="#DejaVuSans-51" transform="translate(222.03125 0)"/>
      <use xlink:href="#DejaVuSans-16" transform="translate(285.40625 0)"/>
      <use xlink:href="#DejaVuSans-11" transform="translate(349.03125 0)"/>
      <use xlink:href="#DejaVuSans-1b" transform="translate(380.8125 0)"/>
      <use xlink:href="#DejaVuSans-10" transform="translate(444.4375 0)"/>
      <use xlink:href="#DejaVuSans-29" transform="translate(480.515625 0)"/>
      <use xlink:href="#DejaVuSans-4f" transform="translate(538.03125 0)"/>
      <use xlink:href="#DejaVuSans-44" transform="translate(565.8125 0)"/>
      <use xlink:href="#DejaVuSans-56" transform="translate(627.09375 0)"/>
      <use xlink:href="#DejaVuSans-4b" transform="translate(679.1875 0)"/>
      <use xlink:href="#DejaVuSans-10" transform="translate(742.5625 0)"/>
      <use xlink:href="#DejaVuSans-31" transform="translate(778.640625 0)"/>
      <use xlink:href="#DejaVuSans-48" transform="translate(853.453125 0)"/>
      <use xlink:href="#DejaVuSans-5b" transform="translate(913.234375 0)"/>
      <use xlink:href="#DejaVuSans-57" transform="translate(972.421875 0)"/>
      <use xlink:href="#DejaVuSans-3" transform="translate(1011.625 0)"/>
      <use xlink:href="#DejaVuSans-31" transform="translate(1043.40625 0)"/>
      <use xlink:href="#DejaVuSans-39" transform="translate(1118.21875 0)"/>
      <use xlink:href="#DejaVuSans-29" transform="translate(1186.625 0)"/>
      <use xlink:href="#DejaVuSans-33" transform="translate(1244.140625 0)"/>
      <use xlink:href="#DejaVuSans-17" transform="translate(1304.4375 0)"/>
      <use xlink:href="#DejaVuSans-3" transform="translate(1368.0625 0)"/>
      <use xlink:href="#DejaVuSans-b" transform="translate(1399.84375 0)"/>
      <use xlink:href="#DejaVuSans-46" transform="translate(1438.859375 0)"/>
      <use xlink:href="#DejaVuSans-4f" transform="translate(1493.84375 0)"/>
      <use xlink:href="#DejaVuSans-48" transform="translate(1521.625 0)"/>
      <use xlink:href="#DejaVuSans-44" transform="translate(1583.15625 0)"/>
      <use xlink:href="#DejaVuSans-51" transform="translate(1644.4375 0)"/>
      <use xlink:href="#DejaVuSans-c" transform="translate(1707.8125 0)"/>
      <use xlink:href="#DejaVuSans-3" transform="translate(1746.828125 0)"/>
      <use xlink:href="#DejaVuSans-10" transform="translate(1778.609375 0)"/>
      <use xlink:href="#DejaVuSans-3" transform="translate(1814.6875 0)"/>
      <use xlink:href="#DejaVuSans-54" transform="translate(1846.46875 0)"/>
      <use xlink:href="#DejaVuSans-58" transform="translate(1909.953125 0)"/>
      <use xlink:href="#DejaVuSans-44" transform="translate(1973.328125 0)"/>
      <use xlink:href="#DejaVuSans-4f" transform="translate(2034.609375 0)"/>
      <use xlink:href="#DejaVuSans-4c" transform="translate(2062.390625 0)"/>
      <use xlink:href="#DejaVuSans-13af" transform="translate(2090.171875 0)"/>
      <use xlink:href="#DejaVuSans-48" transform="translate(2153.15625 0)"/>
      <use xlink:href="#DejaVuSans-47" transform="translate(2214.6875 0)"/>
     </g>
    </g>
    <g id="line2d_52">
     <path d="M 52.282344 60.64 
L 60.282344 60.64 
L 68.282344 60.64 
" style="fill: none; stroke: #2f7d32; stroke-width: 1.5; stroke-linecap: square"/>
     <g>
      <use xlink:href="#m3e261dde1f" x="60.282344" y="60.64" style="fill: #2f7d32; stroke: #2f7d32"/>
     </g>
    </g>
    <g id="text_17">
     <!-- GLM 5.3 (clean, GLM tokens) - qualified -->
     <g transform="translate(74.682344 63.44) scale(0.08 -0.08)">
      <defs>
       <path id="DejaVuSans-2a" d="M 3809 666 
L 3809 1919 
L 2778 1919 
L 2778 2438 
L 4434 2438 
L 4434 434 
Q 4069 175 3628 42 
Q 3188 -91 2688 -91 
Q 1594 -91 976 548 
Q 359 1188 359 2328 
Q 359 3472 976 4111 
Q 1594 4750 2688 4750 
Q 3144 4750 3555 4637 
Q 3966 4525 4313 4306 
L 4313 3634 
Q 3963 3931 3569 4081 
Q 3175 4231 2741 4231 
Q 1884 4231 1454 3753 
Q 1025 3275 1025 2328 
Q 1025 1384 1454 906 
Q 1884 428 2741 428 
Q 3075 428 3337 486 
Q 3600 544 3809 666 
z
" transform="scale(0.015625)"/>
       <path id="DejaVuSans-30" d="M 628 4666 
L 1569 4666 
L 2759 1491 
L 3956 4666 
L 4897 4666 
L 4897 0 
L 4281 0 
L 4281 4097 
L 3078 897 
L 2444 897 
L 1241 4097 
L 1241 0 
L 628 0 
L 628 4666 
z
" transform="scale(0.015625)"/>
      </defs>
      <use xlink:href="#DejaVuSans-2a"/>
      <use xlink:href="#DejaVuSans-2f" transform="translate(77.484375 0)"/>
      <use xlink:href="#DejaVuSans-30" transform="translate(133.203125 0)"/>
      <use xlink:href="#DejaVuSans-3" transform="translate(219.484375 0)"/>
      <use xlink:href="#DejaVuSans-18" transform="translate(251.265625 0)"/>
      <use xlink:href="#DejaVuSans-11" transform="translate(314.890625 0)"/>
      <use xlink:href="#DejaVuSans-16" transform="translate(346.671875 0)"/>
      <use xlink:href="#DejaVuSans-3" transform="translate(410.296875 0)"/>
      <use xlink:href="#DejaVuSans-b" transform="translate(442.078125 0)"/>
      <use xlink:href="#DejaVuSans-46" transform="translate(481.09375 0)"/>
      <use xlink:href="#DejaVuSans-4f" transform="translate(536.078125 0)"/>
      <use xlink:href="#DejaVuSans-48" transform="translate(563.859375 0)"/>
      <use xlink:href="#DejaVuSans-44" transform="translate(625.390625 0)"/>
      <use xlink:href="#DejaVuSans-51" transform="translate(686.671875 0)"/>
      <use xlink:href="#DejaVuSans-f" transform="translate(750.046875 0)"/>
      <use xlink:href="#DejaVuSans-3" transform="translate(781.828125 0)"/>
      <use xlink:href="#DejaVuSans-2a" transform="translate(813.609375 0)"/>
      <use xlink:href="#DejaVuSans-2f" transform="translate(891.09375 0)"/>
      <use xlink:href="#DejaVuSans-30" transform="translate(946.8125 0)"/>
      <use xlink:href="#DejaVuSans-3" transform="translate(1033.09375 0)"/>
      <use xlink:href="#DejaVuSans-57" transform="translate(1064.875 0)"/>
      <use xlink:href="#DejaVuSans-52" transform="translate(1104.078125 0)"/>
      <use xlink:href="#DejaVuSans-4e" transform="translate(1165.265625 0)"/>
      <use xlink:href="#DejaVuSans-48" transform="translate(1219.609375 0)"/>
      <use xlink:href="#DejaVuSans-51" transform="translate(1281.140625 0)"/>
      <use xlink:href="#DejaVuSans-56" transform="translate(1344.515625 0)"/>
      <use xlink:href="#DejaVuSans-c" transform="translate(1396.609375 0)"/>
      <use xlink:href="#DejaVuSans-3" transform="translate(1435.625 0)"/>
      <use xlink:href="#DejaVuSans-10" transform="translate(1467.40625 0)"/>
      <use xlink:href="#DejaVuSans-3" transform="translate(1503.484375 0)"/>
      <use xlink:href="#DejaVuSans-54" transform="translate(1535.265625 0)"/>
      <use xlink:href="#DejaVuSans-58" transform="translate(1598.75 0)"/>
      <use xlink:href="#DejaVuSans-44" transform="translate(1662.125 0)"/>
      <use xlink:href="#DejaVuSans-4f" transform="translate(1723.40625 0)"/>
      <use xlink:href="#DejaVuSans-4c" transform="translate(1751.1875 0)"/>
      <use xlink:href="#DejaVuSans-13af" transform="translate(1778.96875 0)"/>
      <use xlink:href="#DejaVuSans-48" transform="translate(1841.953125 0)"/>
      <use xlink:href="#DejaVuSans-47" transform="translate(1903.484375 0)"/>
     </g>
    </g>
    <g id="line2d_53">
     <path d="M 52.282344 72.640625 
L 60.282344 72.640625 
L 68.282344 72.640625 
" style="fill: none; stroke: #00838f; stroke-width: 1.5; stroke-linecap: square"/>
     <g>
      <use xlink:href="#m5e2a0453f8" x="60.282344" y="72.640625" style="fill: #00838f; stroke: #00838f"/>
     </g>
    </g>
    <g id="text_18">
     <!-- Gemma 4 deriv. (clean, Gemma tokens) - qualified -->
     <g transform="translate(74.682344 75.440625) scale(0.08 -0.08)">
      <use xlink:href="#DejaVuSans-2a"/>
      <use xlink:href="#DejaVuSans-48" transform="translate(77.484375 0)"/>
      <use xlink:href="#DejaVuSans-50" transform="translate(139.015625 0)"/>
      <use xlink:href="#DejaVuSans-50" transform="translate(236.421875 0)"/>
      <use xlink:href="#DejaVuSans-44" transform="translate(333.828125 0)"/>
      <use xlink:href="#DejaVuSans-3" transform="translate(395.109375 0)"/>
      <use xlink:href="#DejaVuSans-17" transform="translate(426.890625 0)"/>
      <use xlink:href="#DejaVuSans-3" transform="translate(490.515625 0)"/>
      <use xlink:href="#DejaVuSans-47" transform="translate(522.296875 0)"/>
      <use xlink:href="#DejaVuSans-48" transform="translate(585.78125 0)"/>
      <use xlink:href="#DejaVuSans-55" transform="translate(647.3125 0)"/>
      <use xlink:href="#DejaVuSans-4c" transform="translate(688.421875 0)"/>
      <use xlink:href="#DejaVuSans-59" transform="translate(716.203125 0)"/>
      <use xlink:href="#DejaVuSans-11" transform="translate(767.625 0)"/>
      <use xlink:href="#DejaVuSans-3" transform="translate(799.40625 0)"/>
      <use xlink:href="#DejaVuSans-b" transform="translate(831.1875 0)"/>
      <use xlink:href="#DejaVuSans-46" transform="translate(870.203125 0)"/>
      <use xlink:href="#DejaVuSans-4f" transform="translate(925.1875 0)"/>
      <use xlink:href="#DejaVuSans-48" transform="translate(952.96875 0)"/>
      <use xlink:href="#DejaVuSans-44" transform="translate(1014.5 0)"/>
      <use xlink:href="#DejaVuSans-51" transform="translate(1075.78125 0)"/>
      <use xlink:href="#DejaVuSans-f" transform="translate(1139.15625 0)"/>
      <use xlink:href="#DejaVuSans-3" transform="translate(1170.9375 0)"/>
      <use xlink:href="#DejaVuSans-2a" transform="translate(1202.71875 0)"/>
      <use xlink:href="#DejaVuSans-48" transform="translate(1280.203125 0)"/>
      <use xlink:href="#DejaVuSans-50" transform="translate(1341.734375 0)"/>
      <use xlink:href="#DejaVuSans-50" transform="translate(1439.140625 0)"/>
      <use xlink:href="#DejaVuSans-44" transform="translate(1536.546875 0)"/>
      <use xlink:href="#DejaVuSans-3" transform="translate(1597.828125 0)"/>
      <use xlink:href="#DejaVuSans-57" transform="translate(1629.609375 0)"/>
      <use xlink:href="#DejaVuSans-52" transform="translate(1668.8125 0)"/>
      <use xlink:href="#DejaVuSans-4e" transform="translate(1730 0)"/>
      <use xlink:href="#DejaVuSans-48" transform="translate(1784.34375 0)"/>
      <use xlink:href="#DejaVuSans-51" transform="translate(1845.875 0)"/>
      <use xlink:href="#DejaVuSans-56" transform="translate(1909.25 0)"/>
      <use xlink:href="#DejaVuSans-c" transform="translate(1961.34375 0)"/>
      <use xlink:href="#DejaVuSans-3" transform="translate(2000.359375 0)"/>
      <use xlink:href="#DejaVuSans-10" transform="translate(2032.140625 0)"/>
      <use xlink:href="#DejaVuSans-3" transform="translate(2068.21875 0)"/>
      <use xlink:href="#DejaVuSans-54" transform="translate(2100 0)"/>
      <use xlink:href="#DejaVuSans-58" transform="translate(2163.484375 0)"/>
      <use xlink:href="#DejaVuSans-44" transform="translate(2226.859375 0)"/>
      <use xlink:href="#DejaVuSans-4f" transform="translate(2288.140625 0)"/>
      <use xlink:href="#DejaVuSans-4c" transform="translate(2315.921875 0)"/>
      <use xlink:href="#DejaVuSans-13af" transform="translate(2343.703125 0)"/>
      <use xlink:href="#DejaVuSans-48" transform="translate(2406.6875 0)"/>
      <use xlink:href="#DejaVuSans-47" transform="translate(2468.21875 0)"/>
     </g>
    </g>
    <g id="line2d_54">
     <path d="M 52.282344 84.64125 
L 60.282344 84.64125 
L 68.282344 84.64125 
" style="fill: none; stroke: #8d6e63; stroke-width: 1.5; stroke-linecap: square"/>
     <g>
      <use xlink:href="#m21519cee13" x="60.282344" y="84.64125" style="fill: #8d6e63; stroke: #8d6e63"/>
     </g>
    </g>
    <g id="text_19">
     <!-- Qwen3.6-35B-A3B MoE (clean) - qualified -->
     <g transform="translate(74.682344 87.44125) scale(0.08 -0.08)">
      <use xlink:href="#DejaVuSans-34"/>
      <use xlink:href="#DejaVuSans-5a" transform="translate(78.71875 0)"/>
      <use xlink:href="#DejaVuSans-48" transform="translate(160.5 0)"/>
      <use xlink:href="#DejaVuSans-51" transform="translate(222.03125 0)"/>
      <use xlink:href="#DejaVuSans-16" transform="translate(285.40625 0)"/>
      <use xlink:href="#DejaVuSans-11" transform="translate(349.03125 0)"/>
      <use xlink:href="#DejaVuSans-19" transform="translate(380.8125 0)"/>
      <use xlink:href="#DejaVuSans-10" transform="translate(444.4375 0)"/>
      <use xlink:href="#DejaVuSans-16" transform="translate(480.515625 0)"/>
      <use xlink:href="#DejaVuSans-18" transform="translate(544.140625 0)"/>
      <use xlink:href="#DejaVuSans-25" transform="translate(607.765625 0)"/>
      <use xlink:href="#DejaVuSans-10" transform="translate(676.375 0)"/>
      <use xlink:href="#DejaVuSans-24" transform="translate(710.25 0)"/>
      <use xlink:href="#DejaVuSans-16" transform="translate(778.65625 0)"/>
      <use xlink:href="#DejaVuSans-25" transform="translate(842.28125 0)"/>
      <use xlink:href="#DejaVuSans-3" transform="translate(910.890625 0)"/>
      <use xlink:href="#DejaVuSans-30" transform="translate(942.671875 0)"/>
      <use xlink:href="#DejaVuSans-52" transform="translate(1028.953125 0)"/>
      <use xlink:href="#DejaVuSans-28" transform="translate(1090.140625 0)"/>
      <use xlink:href="#DejaVuSans-3" transform="translate(1153.328125 0)"/>
      <use xlink:href="#DejaVuSans-b" transform="translate(1185.109375 0)"/>
      <use xlink:href="#DejaVuSans-46" transform="translate(1224.125 0)"/>
      <use xlink:href="#DejaVuSans-4f" transform="translate(1279.109375 0)"/>
      <use xlink:href="#DejaVuSans-48" transform="translate(1306.890625 0)"/>
      <use xlink:href="#DejaVuSans-44" transform="translate(1368.421875 0)"/>
      <use xlink:href="#DejaVuSans-51" transform="translate(1429.703125 0)"/>
      <use xlink:href="#DejaVuSans-c" transform="translate(1493.078125 0)"/>
      <use xlink:href="#DejaVuSans-3" transform="translate(1532.09375 0)"/>
      <use xlink:href="#DejaVuSans-10" transform="translate(1563.875 0)"/>
      <use xlink:href="#DejaVuSans-3" transform="translate(1599.953125 0)"/>
      <use xlink:href="#DejaVuSans-54" transform="translate(1631.734375 0)"/>
      <use xlink:href="#DejaVuSans-58" transform="translate(1695.21875 0)"/>
      <use xlink:href="#DejaVuSans-44" transform="translate(1758.59375 0)"/>
      <use xlink:href="#DejaVuSans-4f" transform="translate(1819.875 0)"/>
      <use xlink:href="#DejaVuSans-4c" transform="translate(1847.65625 0)"/>
      <use xlink:href="#DejaVuSans-13af" transform="translate(1875.4375 0)"/>
      <use xlink:href="#DejaVuSans-48" transform="translate(1938.421875 0)"/>
      <use xlink:href="#DejaVuSans-47" transform="translate(1999.953125 0)"/>
     </g>
    </g>
    <g id="line2d_55">
     <defs>
      <path id="mb5fed3ccf8" d="M 0 3 
C 0.795609 3 1.55874 2.683901 2.12132 2.12132 
C 2.683901 1.55874 3 0.795609 3 0 
C 3 -0.795609 2.683901 -1.55874 2.12132 -2.12132 
C 1.55874 -2.683901 0.795609 -3 0 -3 
C -0.795609 -3 -1.55874 -2.683901 -2.12132 -2.12132 
C -2.683901 -1.55874 -3 -0.795609 -3 0 
C -3 0.795609 -2.683901 1.55874 -2.12132 2.12132 
C -1.55874 2.683901 -0.795609 3 0 3 
z
" style="stroke: #000000"/>
     </defs>
     <g>
      <use xlink:href="#mb5fed3ccf8" x="60.282344" y="96.641875" style="fill: #ffffff; stroke: #000000"/>
     </g>
    </g>
    <g id="text_20">
     <!-- EXCLUDED, VOID or floor failed - not interpreted -->
     <g transform="translate(74.682344 99.441875) scale(0.08 -0.08)">
      <defs>
       <path id="DejaVuSans-3b" d="M 403 4666 
L 1081 4666 
L 2241 2931 
L 3406 4666 
L 4084 4666 
L 2584 2425 
L 4184 0 
L 3506 0 
L 2194 1984 
L 872 0 
L 191 0 
L 1856 2491 
L 403 4666 
z
" transform="scale(0.015625)"/>
       <path id="DejaVuSans-26" d="M 4122 4306 
L 4122 3641 
Q 3803 3938 3442 4084 
Q 3081 4231 2675 4231 
Q 1875 4231 1450 3742 
Q 1025 3253 1025 2328 
Q 1025 1406 1450 917 
Q 1875 428 2675 428 
Q 3081 428 3442 575 
Q 3803 722 4122 1019 
L 4122 359 
Q 3791 134 3420 21 
Q 3050 -91 2638 -91 
Q 1578 -91 968 557 
Q 359 1206 359 2328 
Q 359 3453 968 4101 
Q 1578 4750 2638 4750 
Q 3056 4750 3426 4639 
Q 3797 4528 4122 4306 
z
" transform="scale(0.015625)"/>
       <path id="DejaVuSans-38" d="M 556 4666 
L 1191 4666 
L 1191 1831 
Q 1191 1081 1462 751 
Q 1734 422 2344 422 
Q 2950 422 3222 751 
Q 3494 1081 3494 1831 
L 3494 4666 
L 4128 4666 
L 4128 1753 
Q 4128 841 3676 375 
Q 3225 -91 2344 -91 
Q 1459 -91 1007 375 
Q 556 841 556 1753 
L 556 4666 
z
" transform="scale(0.015625)"/>
       <path id="DejaVuSans-27" d="M 1259 4147 
L 1259 519 
L 2022 519 
Q 2988 519 3436 956 
Q 3884 1394 3884 2338 
Q 3884 3275 3436 3711 
Q 2988 4147 2022 4147 
L 1259 4147 
z
M 628 4666 
L 1925 4666 
Q 3281 4666 3915 4102 
Q 4550 3538 4550 2338 
Q 4550 1131 3912 565 
Q 3275 0 1925 0 
L 628 0 
L 628 4666 
z
" transform="scale(0.015625)"/>
       <path id="DejaVuSans-32" d="M 2522 4238 
Q 1834 4238 1429 3725 
Q 1025 3213 1025 2328 
Q 1025 1447 1429 934 
Q 1834 422 2522 422 
Q 3209 422 3611 934 
Q 4013 1447 4013 2328 
Q 4013 3213 3611 3725 
Q 3209 4238 2522 4238 
z
M 2522 4750 
Q 3503 4750 4090 4092 
Q 4678 3434 4678 2328 
Q 4678 1225 4090 567 
Q 3503 -91 2522 -91 
Q 1538 -91 948 565 
Q 359 1222 359 2328 
Q 359 3434 948 4092 
Q 1538 4750 2522 4750 
z
" transform="scale(0.015625)"/>
       <path id="DejaVuSans-13b0" d="M 1831 4863 
L 3431 4863 
L 3431 0 
L 2853 0 
L 2853 4384 
L 1825 4384 
Q 1516 4384 1395 4259 
Q 1275 4134 1275 3809 
L 1275 3500 
L 2222 3500 
L 2222 3053 
L 1275 3053 
L 1275 0 
L 697 0 
L 697 3053 
L 147 3053 
L 147 3500 
L 697 3500 
L 697 3744 
Q 697 4328 969 4595 
Q 1241 4863 1831 4863 
z
" transform="scale(0.015625)"/>
      </defs>
      <use xlink:href="#DejaVuSans-28"/>
      <use xlink:href="#DejaVuSans-3b" transform="translate(63.1875 0)"/>
      <use xlink:href="#DejaVuSans-26" transform="translate(124.40625 0)"/>
      <use xlink:href="#DejaVuSans-2f" transform="translate(194.234375 0)"/>
      <use xlink:href="#DejaVuSans-38" transform="translate(244.96875 0)"/>
      <use xlink:href="#DejaVuSans-27" transform="translate(318.15625 0)"/>
      <use xlink:href="#DejaVuSans-28" transform="translate(395.15625 0)"/>
      <use xlink:href="#DejaVuSans-27" transform="translate(458.34375 0)"/>
      <use xlink:href="#DejaVuSans-f" transform="translate(535.34375 0)"/>
      <use xlink:href="#DejaVuSans-3" transform="translate(567.125 0)"/>
      <use xlink:href="#DejaVuSans-39" transform="translate(598.90625 0)"/>
      <use xlink:href="#DejaVuSans-32" transform="translate(665.5625 0)"/>
      <use xlink:href="#DejaVuSans-2c" transform="translate(744.28125 0)"/>
      <use xlink:href="#DejaVuSans-27" transform="translate(773.78125 0)"/>
      <use xlink:href="#DejaVuSans-3" transform="translate(850.78125 0)"/>
      <use xlink:href="#DejaVuSans-52" transform="translate(882.5625 0)"/>
      <use xlink:href="#DejaVuSans-55" transform="translate(943.75 0)"/>
      <use xlink:href="#DejaVuSans-3" transform="translate(984.859375 0)"/>
      <use xlink:href="#DejaVuSans-13b0" transform="translate(1016.640625 0)"/>
      <use xlink:href="#DejaVuSans-52" transform="translate(1079.625 0)"/>
      <use xlink:href="#DejaVuSans-52" transform="translate(1140.8125 0)"/>
      <use xlink:href="#DejaVuSans-55" transform="translate(1202 0)"/>
      <use xlink:href="#DejaVuSans-3" transform="translate(1243.109375 0)"/>
      <use xlink:href="#DejaVuSans-49" transform="translate(1274.890625 0)"/>
      <use xlink:href="#DejaVuSans-44" transform="translate(1310.09375 0)"/>
      <use xlink:href="#DejaVuSans-4c" transform="translate(1371.375 0)"/>
      <use xlink:href="#DejaVuSans-4f" transform="translate(1399.15625 0)"/>
      <use xlink:href="#DejaVuSans-48" transform="translate(1426.9375 0)"/>
      <use xlink:href="#DejaVuSans-47" transform="translate(1488.46875 0)"/>
      <use xlink:href="#DejaVuSans-3" transform="translate(1551.953125 0)"/>
      <use xlink:href="#DejaVuSans-10" transform="translate(1583.734375 0)"/>
      <use xlink:href="#DejaVuSans-3" transform="translate(1619.8125 0)"/>
      <use xlink:href="#DejaVuSans-51" transform="translate(1651.59375 0)"/>
      <use xlink:href="#DejaVuSans-52" transform="translate(1714.96875 0)"/>
      <use xlink:href="#DejaVuSans-57" transform="translate(1776.15625 0)"/>
      <use xlink:href="#DejaVuSans-3" transform="translate(1815.359375 0)"/>
      <use xlink:href="#DejaVuSans-4c" transform="translate(1847.140625 0)"/>
      <use xlink:href="#DejaVuSans-51" transform="translate(1874.921875 0)"/>
      <use xlink:href="#DejaVuSans-57" transform="translate(1938.296875 0)"/>
      <use xlink:href="#DejaVuSans-48" transform="translate(1977.5 0)"/>
      <use xlink:href="#DejaVuSans-55" transform="translate(2039.03125 0)"/>
      <use xlink:href="#DejaVuSans-53" transform="translate(2080.140625 0)"/>
      <use xlink:href="#DejaVuSans-55" transform="translate(2143.625 0)"/>
      <use xlink:href="#DejaVuSans-48" transform="translate(2182.53125 0)"/>
      <use xlink:href="#DejaVuSans-57" transform="translate(2244.0625 0)"/>
      <use xlink:href="#DejaVuSans-48" transform="translate(2283.265625 0)"/>
      <use xlink:href="#DejaVuSans-47" transform="translate(2344.796875 0)"/>
     </g>
    </g>
   </g>
  </g>
 </g>
 <defs>
  <clipPath id="p2c7b28d467">
   <rect x="45.082344" y="26.16" width="462.517656" height="264.917656"/>
  </clipPath>
 </defs>
</svg>
